<?xml version="1.0" encoding="UTF-8" standalone="no"?>
<!-- Created with Inkscape (http://www.inkscape.org/) -->

<svg
   xmlns:dc="http://purl.org/dc/elements/1.1/"
   xmlns:cc="http://creativecommons.org/ns#"
   xmlns:rdf="http://www.w3.org/1999/02/22-rdf-syntax-ns#"
   xmlns:svg="http://www.w3.org/2000/svg"
   xmlns="http://www.w3.org/2000/svg"
   xmlns:sodipodi="http://sodipodi.sourceforge.net/DTD/sodipodi-0.dtd"
   xmlns:inkscape="http://www.inkscape.org/namespaces/inkscape"
   id="svg3004"
   version="1.1"
   inkscape:version="0.48.1 r9760"
   width="750"
   height="35"
   xml:space="preserve"
   sodipodi:docname="SSHRC-CRSH_FIP.eps"><metadata
     id="metadata3010"><rdf:RDF><cc:Work
         rdf:about=""><dc:format>image/svg+xml</dc:format><dc:type
           rdf:resource="http://purl.org/dc/dcmitype/StillImage" /><dc:title></dc:title></cc:Work></rdf:RDF></metadata><defs
     id="defs3008" /><sodipodi:namedview
     pagecolor="#ffffff"
     bordercolor="#666666"
     borderopacity="1"
     objecttolerance="10"
     gridtolerance="10"
     guidetolerance="10"
     inkscape:pageopacity="0"
     inkscape:pageshadow="2"
     inkscape:window-width="1779"
     inkscape:window-height="985"
     id="namedview3006"
     showgrid="false"
     showguides="true"
     inkscape:guide-bbox="true"
     inkscape:snap-bbox="false"
     inkscape:zoom="1.2176647"
     inkscape:cx="358.49994"
     inkscape:cy="117.51397"
     inkscape:window-x="0"
     inkscape:window-y="0"
     inkscape:window-maximized="0"
     inkscape:current-layer="g3012" /><g
     id="g3012"
     inkscape:groupmode="layer"
     inkscape:label="ink_ext_XXXXXX"
     transform="matrix(1.25,0,0,-1.25,0,35.00002)"><rect
       style="fill:#eee8d5;fill-opacity:1;stroke:none"
       id="rect14083"
       width="777.7182"
       height="59.950821"
       x="-12.318662"
       y="-10.168427"
       transform="matrix(0.8,0,0,-0.8,0,28.000016)"
       ry="0" /><g
       id="g13971"
       transform="matrix(1.2406695,0,0,1.2370151,-111.09003,-493.46669)"><path
         inkscape:connector-curvature="0"
         d="m 109.818,402.23 c 0,0 -0.131,3.223 -0.131,3.547 0,0.321 0.271,0.43 0.593,0.36 0.321,-0.071 3.334,-0.684 3.334,-0.684 0,0 -0.231,0.654 -0.391,1.137 -0.161,0.48 0.05,0.57 0.16,0.672 0.111,0.099 3.367,2.914 3.367,2.914 l -0.532,0.259 c -0.322,0.151 -0.271,0.422 -0.221,0.606 0.05,0.178 0.586,2.059 0.586,2.059 0,0 -1.404,-0.315 -1.733,-0.364 -0.261,-0.041 -0.352,0.078 -0.432,0.26 -0.08,0.182 -0.422,1.004 -0.422,1.004 0,0 -1.721,-1.904 -1.758,-1.94 -0.331,-0.298 -0.653,-0.07 -0.592,0.282 0.055,0.322 0.884,4.129 0.884,4.129 0,0 -0.915,-0.543 -1.216,-0.723 -0.301,-0.182 -0.462,-0.15 -0.623,0.143 -0.16,0.291 -1.288,2.548 -1.288,2.548 l 0.002,0 c 0,0 -1.128,-2.257 -1.288,-2.548 -0.161,-0.293 -0.322,-0.325 -0.623,-0.143 -0.301,0.18 -1.215,0.723 -1.215,0.723 0,0 0.829,-3.807 0.884,-4.129 0.06,-0.352 -0.262,-0.58 -0.593,-0.282 -0.037,0.036 -1.757,1.94 -1.757,1.94 0,0 -0.342,-0.822 -0.423,-1.004 -0.08,-0.182 -0.17,-0.301 -0.432,-0.26 -0.328,0.049 -1.79,0.364 -1.79,0.364 0,0 0.593,-1.881 0.644,-2.059 0.049,-0.184 0.1,-0.455 -0.222,-0.606 l -0.532,-0.259 c 0,0 3.256,-2.815 3.367,-2.914 0.11,-0.102 0.322,-0.192 0.16,-0.672 -0.16,-0.483 -0.391,-1.137 -0.391,-1.137 0,0 3.013,0.613 3.335,0.684 0.321,0.07 0.593,-0.039 0.593,-0.36 0,-0.324 -0.131,-3.547 -0.131,-3.547 l 0.827,0"
         style="fill:#ed1c24;fill-opacity:1;fill-rule:nonzero;stroke:none"
         id="path3234" /><path
         inkscape:connector-curvature="0"
         d="m 119.263,400.465 9.56719,0 0,19.6312 -9.56719,0 0,-19.6312 z"
         style="fill:#ed1c24;fill-opacity:1;fill-rule:nonzero;stroke:none"
         id="path3236" /><path
         inkscape:connector-curvature="0"
         d="m 90.1852,400.473 9.56719,0 0,19.6301 -9.56719,0 0,-19.6301 z"
         style="fill:#ed1c24;fill-opacity:1;fill-rule:nonzero;stroke:none"
         id="path3238" /><path
         inkscape:connector-curvature="0"
         d="m 145.424,414.924 0.925,0 c 0.023,-0.412 0.12,-0.746 0.291,-1.004 0.327,-0.481 0.902,-0.721 1.726,-0.721 0.369,0 0.705,0.053 1.009,0.158 0.586,0.203 0.879,0.571 0.879,1.098 0,0.395 -0.123,0.678 -0.371,0.844 -0.25,0.166 -0.642,0.308 -1.176,0.431 l -0.984,0.223 c -0.643,0.145 -1.098,0.305 -1.365,0.479 -0.461,0.304 -0.691,0.755 -0.691,1.359 0,0.654 0.225,1.187 0.677,1.607 0.451,0.418 1.091,0.629 1.918,0.629 0.761,0 1.408,-0.185 1.94,-0.552 0.532,-0.368 0.799,-0.956 0.799,-1.762 l -0.925,0 c -0.049,0.39 -0.155,0.685 -0.316,0.894 -0.3,0.379 -0.809,0.571 -1.528,0.571 -0.58,0 -0.997,-0.125 -1.251,-0.368 -0.253,-0.244 -0.38,-0.527 -0.38,-0.849 0,-0.358 0.148,-0.617 0.445,-0.783 0.194,-0.104 0.634,-0.237 1.32,-0.395 l 1.018,-0.23 c 0.491,-0.116 0.87,-0.268 1.137,-0.463 0.461,-0.34 0.692,-0.832 0.692,-1.477 0,-0.804 -0.292,-1.381 -0.877,-1.726 -0.585,-0.346 -1.265,-0.518 -2.04,-0.518 -0.903,0 -1.609,0.229 -2.12,0.691 -0.511,0.459 -0.762,1.081 -0.752,1.864"
         style="fill:#231f20;fill-opacity:1;fill-rule:nonzero;stroke:none"
         id="path3240" /><path
         inkscape:connector-curvature="0"
         d="m 152.657,417.238 c -0.451,-0.527 -0.678,-1.236 -0.678,-2.127 0,-0.83 0.215,-1.492 0.644,-1.984 0.428,-0.492 1.006,-0.74 1.735,-0.74 0.873,0 1.517,0.279 1.933,0.836 0.415,0.556 0.623,1.263 0.623,2.117 0,0.883 -0.236,1.551 -0.707,2.006 -0.472,0.457 -1.048,0.683 -1.731,0.683 -0.761,0 -1.368,-0.263 -1.819,-0.791 z m 0.608,-3.521 c -0.247,0.377 -0.37,0.845 -0.37,1.41 0,0.588 0.123,1.088 0.37,1.502 0.247,0.416 0.643,0.623 1.187,0.623 0.612,0 1.044,-0.244 1.295,-0.731 0.158,-0.31 0.237,-0.712 0.237,-1.207 0,-0.545 -0.109,-1.045 -0.329,-1.49 -0.219,-0.447 -0.623,-0.67 -1.213,-0.67 -0.538,0 -0.93,0.188 -1.177,0.563"
         style="fill:#231f20;fill-opacity:1;fill-rule:nonzero;stroke:none"
         id="path3242" /><path
         inkscape:connector-curvature="0"
         d="m 160.011,418.029 c 0.596,0 1.082,-0.146 1.456,-0.435 0.374,-0.291 0.599,-0.789 0.675,-1.498 l -0.866,0 c -0.052,0.328 -0.172,0.597 -0.36,0.812 -0.188,0.217 -0.49,0.324 -0.905,0.324 -0.567,0 -0.972,-0.275 -1.216,-0.83 -0.158,-0.357 -0.237,-0.802 -0.237,-1.328 0,-0.533 0.111,-0.978 0.336,-1.342 0.224,-0.363 0.576,-0.543 1.058,-0.543 0.369,0 0.661,0.114 0.877,0.338 0.216,0.227 0.365,0.535 0.447,0.928 l 0.866,0 c -0.099,-0.703 -0.346,-1.215 -0.742,-1.539 -0.395,-0.326 -0.901,-0.488 -1.518,-0.488 -0.692,0 -1.244,0.254 -1.656,0.757 -0.412,0.506 -0.618,1.139 -0.618,1.897 0,0.93 0.226,1.654 0.678,2.17 0.451,0.517 1.026,0.777 1.725,0.777"
         style="fill:#231f20;fill-opacity:1;fill-rule:nonzero;stroke:none"
         id="path3244" /><path
         inkscape:connector-curvature="0"
         d="m 163.032,418.836 0,1.008 0.905,0 0,-1.008 -0.905,0 z m 0,-6.254 0,5.268 0.905,0 0,-5.268 -0.905,0"
         style="fill:#231f20;fill-opacity:1;fill-rule:nonzero;stroke:none"
         id="path3246" /><path
         inkscape:connector-curvature="0"
         d="m 165.491,415.111 c -0.306,-0.269 -0.46,-0.65 -0.46,-1.142 0,-0.446 0.156,-0.821 0.468,-1.119 0.311,-0.297 0.712,-0.448 1.204,-0.448 0.408,0 0.782,0.088 1.122,0.264 0.339,0.174 0.599,0.379 0.781,0.617 0.03,-0.211 0.081,-0.375 0.153,-0.488 0.138,-0.219 0.361,-0.328 0.667,-0.328 0.126,0 0.224,0.004 0.297,0.015 0.072,0.01 0.178,0.034 0.317,0.075 l 0,0.658 c -0.057,-0.012 -0.109,-0.02 -0.159,-0.024 -0.049,-0.006 -0.093,-0.007 -0.133,-0.007 -0.122,0 -0.202,0.027 -0.24,0.085 -0.038,0.055 -0.057,0.129 -0.057,0.221 l 0,3.051 c 0,0.5 -0.193,0.869 -0.578,1.107 -0.389,0.239 -0.895,0.356 -1.518,0.356 -0.537,0 -1.009,-0.127 -1.417,-0.383 -0.407,-0.256 -0.618,-0.709 -0.635,-1.363 l 0.831,0 c 0.033,0.273 0.104,0.482 0.213,0.619 0.194,0.25 0.524,0.375 0.988,0.375 0.402,0 0.711,-0.068 0.927,-0.203 0.216,-0.139 0.324,-0.36 0.324,-0.662 0,-0.147 -0.02,-0.262 -0.059,-0.34 -0.069,-0.145 -0.206,-0.233 -0.411,-0.256 l -1.419,-0.18 c -0.497,-0.062 -0.899,-0.228 -1.206,-0.5 z m 0.88,-0.379 c 0.162,0.092 0.404,0.159 0.727,0.202 l 0.539,0.07 c 0.164,0.019 0.333,0.053 0.504,0.099 0.172,0.045 0.312,0.104 0.421,0.174 l 0,-0.718 c 0,-0.547 -0.248,-0.94 -0.742,-1.182 -0.294,-0.145 -0.597,-0.219 -0.91,-0.219 -0.257,0 -0.479,0.074 -0.667,0.225 -0.188,0.146 -0.282,0.349 -0.282,0.607 0,0.338 0.137,0.588 0.41,0.742"
         style="fill:#231f20;fill-opacity:1;fill-rule:nonzero;stroke:none"
         id="path3248" /><path
         inkscape:connector-curvature="0"
         d="m 170.932,412.582 0.88984,0 0,7.26211 -0.88984,0 0,-7.26211 z"
         style="fill:#231f20;fill-opacity:1;fill-rule:nonzero;stroke:none"
         id="path3250" /><path
         inkscape:connector-curvature="0"
         d="m 175.804,414.924 0.925,0 c 0.022,-0.412 0.12,-0.746 0.292,-1.004 0.326,-0.481 0.9,-0.721 1.725,-0.721 0.369,0 0.705,0.053 1.008,0.158 0.587,0.203 0.88,0.571 0.88,1.098 0,0.395 -0.123,0.678 -0.371,0.844 -0.25,0.166 -0.642,0.308 -1.176,0.431 l -0.984,0.223 c -0.643,0.145 -1.098,0.305 -1.365,0.479 -0.461,0.304 -0.692,0.755 -0.692,1.359 0,0.654 0.226,1.187 0.678,1.607 0.451,0.418 1.09,0.629 1.918,0.629 0.761,0 1.408,-0.185 1.941,-0.552 0.531,-0.368 0.798,-0.956 0.798,-1.762 l -0.925,0 c -0.049,0.39 -0.155,0.685 -0.316,0.894 -0.3,0.379 -0.809,0.571 -1.528,0.571 -0.58,0 -0.997,-0.125 -1.251,-0.368 -0.254,-0.244 -0.381,-0.527 -0.381,-0.849 0,-0.358 0.149,-0.617 0.446,-0.783 0.194,-0.104 0.634,-0.237 1.32,-0.395 l 1.018,-0.23 c 0.491,-0.116 0.87,-0.268 1.137,-0.463 0.461,-0.34 0.692,-0.832 0.692,-1.477 0,-0.804 -0.292,-1.381 -0.877,-1.726 -0.585,-0.346 -1.265,-0.518 -2.04,-0.518 -0.903,0 -1.61,0.229 -2.12,0.691 -0.512,0.459 -0.762,1.081 -0.752,1.864"
         style="fill:#231f20;fill-opacity:1;fill-rule:nonzero;stroke:none"
         id="path3252" /><path
         inkscape:connector-curvature="0"
         d="m 184.762,418.029 c 0.597,0 1.082,-0.146 1.456,-0.435 0.374,-0.291 0.6,-0.789 0.675,-1.498 l -0.865,0 c -0.053,0.328 -0.173,0.597 -0.361,0.812 -0.188,0.217 -0.49,0.324 -0.905,0.324 -0.567,0 -0.971,-0.275 -1.216,-0.83 -0.158,-0.357 -0.238,-0.802 -0.238,-1.328 0,-0.533 0.113,-0.978 0.337,-1.342 0.224,-0.363 0.577,-0.543 1.058,-0.543 0.369,0 0.662,0.114 0.878,0.338 0.215,0.227 0.364,0.535 0.447,0.928 l 0.865,0 c -0.099,-0.703 -0.347,-1.215 -0.741,-1.539 -0.397,-0.326 -0.902,-0.488 -1.518,-0.488 -0.692,0 -1.244,0.254 -1.656,0.757 -0.412,0.506 -0.619,1.139 -0.619,1.897 0,0.93 0.226,1.654 0.678,2.17 0.451,0.517 1.027,0.777 1.725,0.777"
         style="fill:#231f20;fill-opacity:1;fill-rule:nonzero;stroke:none"
         id="path3254" /><path
         inkscape:connector-curvature="0"
         d="m 188.687,412.582 0,5.268 -0.904,0 0,-5.268 0.904,0 z m 0,6.254 0,1.008 -0.904,0 0,-1.008 0.904,0"
         style="fill:#231f20;fill-opacity:1;fill-rule:nonzero;stroke:none"
         id="path3256" /><path
         inkscape:connector-curvature="0"
         d="m 190.425,417.199 c -0.461,-0.531 -0.691,-1.221 -0.691,-2.072 0,-0.863 0.228,-1.535 0.686,-2.016 0.458,-0.478 1.017,-0.717 1.677,-0.717 0.27,0 0.512,0.026 0.727,0.077 0.398,0.093 0.732,0.273 1.003,0.537 0.161,0.148 0.307,0.345 0.437,0.584 0.13,0.24 0.207,0.457 0.23,0.65 l -0.875,0 c -0.066,-0.234 -0.178,-0.439 -0.336,-0.619 -0.277,-0.307 -0.648,-0.457 -1.112,-0.457 -0.498,0 -0.865,0.162 -1.103,0.486 -0.236,0.323 -0.363,0.754 -0.381,1.293 l 3.881,0 c 0,0.533 -0.026,0.922 -0.078,1.166 -0.06,0.356 -0.178,0.666 -0.357,0.934 -0.184,0.279 -0.453,0.508 -0.805,0.683 -0.354,0.178 -0.717,0.266 -1.093,0.266 -0.745,0 -1.349,-0.266 -1.81,-0.795 z m 0.727,-0.422 c 0.277,0.293 0.62,0.442 1.029,0.442 0.569,0 0.977,-0.215 1.221,-0.645 0.132,-0.23 0.216,-0.537 0.252,-0.922 l -2.942,0 c 0.016,0.455 0.163,0.83 0.44,1.125"
         style="fill:#231f20;fill-opacity:1;fill-rule:nonzero;stroke:none"
         id="path3258" /><path
         inkscape:connector-curvature="0"
         d="m 195.659,412.582 0,5.293 0.844,0 0,-0.752 c 0.251,0.311 0.516,0.533 0.797,0.668 0.28,0.137 0.592,0.203 0.934,0.203 0.752,0 1.26,-0.262 1.523,-0.787 0.145,-0.285 0.217,-0.695 0.217,-1.229 l 0,-3.396 -0.904,0 0,3.338 c 0,0.32 -0.048,0.58 -0.144,0.779 -0.158,0.328 -0.444,0.496 -0.86,0.496 -0.211,0 -0.384,-0.021 -0.52,-0.066 -0.243,-0.072 -0.457,-0.217 -0.642,-0.434 -0.149,-0.176 -0.244,-0.355 -0.289,-0.543 -0.044,-0.185 -0.067,-0.453 -0.067,-0.799 l 0,-2.771 -0.889,0"
         style="fill:#231f20;fill-opacity:1;fill-rule:nonzero;stroke:none"
         id="path3260" /><path
         inkscape:connector-curvature="0"
         d="m 203.33,418.029 c 0.595,0 1.081,-0.146 1.455,-0.435 0.375,-0.291 0.599,-0.789 0.674,-1.498 l -0.864,0 c -0.053,0.328 -0.174,0.597 -0.361,0.812 -0.188,0.217 -0.49,0.324 -0.904,0.324 -0.569,0 -0.973,-0.275 -1.217,-0.83 -0.158,-0.357 -0.238,-0.802 -0.238,-1.328 0,-0.533 0.113,-0.978 0.336,-1.342 0.224,-0.363 0.578,-0.543 1.058,-0.543 0.369,0 0.662,0.114 0.878,0.338 0.216,0.227 0.365,0.535 0.448,0.928 l 0.864,0 c -0.098,-0.703 -0.345,-1.215 -0.741,-1.539 -0.395,-0.326 -0.901,-0.488 -1.517,-0.488 -0.693,0 -1.244,0.254 -1.657,0.757 -0.412,0.506 -0.618,1.139 -0.618,1.897 0,0.93 0.226,1.654 0.677,2.17 0.452,0.517 1.027,0.777 1.727,0.777"
         style="fill:#231f20;fill-opacity:1;fill-rule:nonzero;stroke:none"
         id="path3262" /><path
         inkscape:connector-curvature="0"
         d="m 206.746,417.199 c -0.462,-0.531 -0.693,-1.221 -0.693,-2.072 0,-0.863 0.23,-1.535 0.687,-2.016 0.459,-0.478 1.017,-0.717 1.676,-0.717 0.271,0 0.513,0.026 0.727,0.077 0.399,0.093 0.733,0.273 1.003,0.537 0.162,0.148 0.308,0.345 0.437,0.584 0.131,0.24 0.208,0.457 0.231,0.65 l -0.875,0 c -0.066,-0.234 -0.178,-0.439 -0.336,-0.619 -0.277,-0.307 -0.648,-0.457 -1.113,-0.457 -0.497,0 -0.865,0.162 -1.102,0.486 -0.238,0.323 -0.365,0.754 -0.381,1.293 l 3.881,0 c 0,0.533 -0.026,0.922 -0.079,1.166 -0.059,0.356 -0.179,0.666 -0.356,0.934 -0.184,0.279 -0.453,0.508 -0.806,0.683 -0.353,0.178 -0.717,0.266 -1.093,0.266 -0.744,0 -1.347,-0.266 -1.808,-0.795 z m 0.726,-0.422 c 0.278,0.293 0.619,0.442 1.028,0.442 0.57,0 0.978,-0.215 1.221,-0.645 0.132,-0.23 0.216,-0.537 0.253,-0.922 l -2.942,0 c 0.016,0.455 0.163,0.83 0.44,1.125"
         style="fill:#231f20;fill-opacity:1;fill-rule:nonzero;stroke:none"
         id="path3264" /><path
         inkscape:connector-curvature="0"
         d="m 211.652,414.242 0.855,0 c 0.027,-0.297 0.1,-0.525 0.223,-0.683 0.224,-0.286 0.613,-0.43 1.166,-0.43 0.33,0 0.62,0.074 0.871,0.215 0.25,0.144 0.375,0.367 0.375,0.668 0,0.224 -0.1,0.398 -0.301,0.517 -0.129,0.072 -0.383,0.156 -0.761,0.252 l -0.707,0.18 c -0.452,0.109 -0.786,0.234 -0.999,0.375 -0.382,0.238 -0.574,0.572 -0.574,0.996 0,0.504 0.18,0.908 0.541,1.217 0.362,0.31 0.847,0.467 1.456,0.467 0.798,0 1.373,-0.237 1.726,-0.704 0.221,-0.296 0.328,-0.617 0.321,-0.959 l -0.841,0 c -0.015,0.2 -0.086,0.383 -0.211,0.549 -0.205,0.235 -0.56,0.35 -1.064,0.35 -0.336,0 -0.59,-0.065 -0.764,-0.192 -0.172,-0.128 -0.259,-0.298 -0.259,-0.507 0,-0.233 0.114,-0.416 0.341,-0.557 0.131,-0.08 0.327,-0.154 0.583,-0.217 l 0.589,-0.142 c 0.639,-0.155 1.068,-0.305 1.285,-0.452 0.346,-0.224 0.52,-0.584 0.52,-1.07 0,-0.472 -0.18,-0.879 -0.537,-1.222 -0.358,-0.344 -0.903,-0.516 -1.634,-0.516 -0.788,0 -1.346,0.18 -1.674,0.539 -0.327,0.357 -0.503,0.799 -0.526,1.326"
         style="fill:#231f20;fill-opacity:1;fill-rule:nonzero;stroke:none"
         id="path3266" /><path
         inkscape:connector-curvature="0"
         d="m 220.066,415.111 c -0.307,-0.269 -0.459,-0.65 -0.459,-1.142 0,-0.446 0.155,-0.821 0.467,-1.119 0.311,-0.297 0.713,-0.448 1.203,-0.448 0.409,0 0.783,0.088 1.123,0.264 0.34,0.174 0.6,0.379 0.781,0.617 0.029,-0.211 0.08,-0.375 0.152,-0.488 0.139,-0.219 0.362,-0.328 0.668,-0.328 0.125,0 0.225,0.004 0.297,0.015 0.073,0.01 0.178,0.034 0.317,0.075 l 0,0.658 c -0.057,-0.012 -0.11,-0.02 -0.158,-0.024 -0.049,-0.006 -0.094,-0.007 -0.133,-0.007 -0.123,0 -0.203,0.027 -0.241,0.085 -0.038,0.055 -0.056,0.129 -0.056,0.221 l 0,3.051 c 0,0.5 -0.194,0.869 -0.579,1.107 -0.389,0.239 -0.895,0.356 -1.518,0.356 -0.538,0 -1.009,-0.127 -1.417,-0.383 -0.406,-0.256 -0.618,-0.709 -0.635,-1.363 l 0.83,0 c 0.034,0.273 0.105,0.482 0.213,0.619 0.196,0.25 0.525,0.375 0.989,0.375 0.402,0 0.712,-0.068 0.927,-0.203 0.216,-0.139 0.325,-0.36 0.325,-0.662 0,-0.147 -0.02,-0.262 -0.06,-0.34 -0.069,-0.145 -0.206,-0.233 -0.411,-0.256 l -1.418,-0.18 c -0.498,-0.062 -0.9,-0.228 -1.207,-0.5 z m 0.881,-0.379 c 0.161,0.092 0.403,0.159 0.726,0.202 l 0.539,0.07 c 0.164,0.019 0.332,0.053 0.504,0.099 0.172,0.045 0.312,0.104 0.42,0.174 l 0,-0.718 c 0,-0.547 -0.247,-0.94 -0.741,-1.182 -0.294,-0.145 -0.597,-0.219 -0.909,-0.219 -0.258,0 -0.481,0.074 -0.668,0.225 -0.188,0.146 -0.281,0.349 -0.281,0.607 0,0.338 0.136,0.588 0.41,0.742"
         style="fill:#231f20;fill-opacity:1;fill-rule:nonzero;stroke:none"
         id="path3268" /><path
         inkscape:connector-curvature="0"
         d="m 225.482,412.582 0,5.293 0.846,0 0,-0.752 c 0.25,0.311 0.515,0.533 0.796,0.668 0.28,0.137 0.591,0.203 0.934,0.203 0.752,0 1.259,-0.262 1.523,-0.787 0.145,-0.285 0.217,-0.695 0.217,-1.229 l 0,-3.396 -0.904,0 0,3.338 c 0,0.32 -0.049,0.58 -0.144,0.779 -0.159,0.328 -0.445,0.496 -0.86,0.496 -0.211,0 -0.385,-0.021 -0.519,-0.066 -0.245,-0.072 -0.458,-0.217 -0.643,-0.434 -0.148,-0.176 -0.244,-0.355 -0.289,-0.543 -0.045,-0.185 -0.066,-0.453 -0.066,-0.799 l 0,-2.771 -0.891,0"
         style="fill:#231f20;fill-opacity:1;fill-rule:nonzero;stroke:none"
         id="path3270" /><path
         inkscape:connector-curvature="0"
         d="m 231.326,417.121 c -0.394,-0.564 -0.59,-1.232 -0.59,-2.002 0,-0.824 0.215,-1.486 0.646,-1.982 0.432,-0.496 0.944,-0.743 1.534,-0.743 0.365,0 0.69,0.071 0.973,0.217 0.284,0.145 0.529,0.379 0.737,0.705 l 0,-0.734 0.801,0 0,7.287 -0.855,0 0,-2.674 c -0.201,0.244 -0.381,0.42 -0.539,0.518 -0.274,0.17 -0.614,0.256 -1.019,0.256 -0.731,0 -1.294,-0.282 -1.688,-0.848 z m 0.766,-0.441 c 0.279,0.343 0.642,0.515 1.091,0.515 0.401,0 0.739,-0.162 1.013,-0.484 0.273,-0.32 0.411,-0.817 0.411,-1.486 0,-0.663 -0.133,-1.168 -0.399,-1.524 -0.265,-0.355 -0.604,-0.531 -1.015,-0.531 -0.531,0 -0.917,0.191 -1.158,0.574 -0.241,0.381 -0.361,0.856 -0.361,1.422 0,0.666 0.14,1.17 0.418,1.514"
         style="fill:#231f20;fill-opacity:1;fill-rule:nonzero;stroke:none"
         id="path3272" /><path
         inkscape:connector-curvature="0"
         d="m 239.696,412.582 0,7.262 0.993,0 0,-3.002 3.777,0 0,3.002 0.994,0 0,-7.262 -0.994,0 0,3.396 -3.777,0 0,-3.396 -0.993,0"
         style="fill:#231f20;fill-opacity:1;fill-rule:nonzero;stroke:none"
         id="path3274" /><path
         inkscape:connector-curvature="0"
         d="m 246.842,417.875 0.909,0 0,-3.514 c 0,-0.271 0.043,-0.492 0.129,-0.662 0.159,-0.316 0.453,-0.476 0.885,-0.476 0.619,0 1.041,0.277 1.266,0.832 0.122,0.295 0.183,0.703 0.183,1.222 l 0,2.598 0.89,0 0,-5.293 -0.841,0 0.01,0.779 c -0.115,-0.201 -0.258,-0.371 -0.43,-0.508 -0.34,-0.277 -0.752,-0.416 -1.236,-0.416 -0.754,0 -1.269,0.252 -1.543,0.758 -0.147,0.27 -0.222,0.629 -0.222,1.082 l 0,3.598"
         style="fill:#231f20;fill-opacity:1;fill-rule:nonzero;stroke:none"
         id="path3276" /><path
         inkscape:connector-curvature="0"
         d="m 252.491,412.582 0,5.293 0.88,0 0,-0.752 c 0.211,0.262 0.402,0.451 0.574,0.568 0.293,0.203 0.625,0.303 0.998,0.303 0.422,0 0.762,-0.103 1.018,-0.312 0.145,-0.118 0.277,-0.291 0.396,-0.524 0.197,0.283 0.43,0.494 0.697,0.633 0.267,0.137 0.567,0.203 0.9,0.203 0.712,0 1.196,-0.258 1.454,-0.771 0.137,-0.278 0.207,-0.649 0.207,-1.116 l 0,-3.525 -0.924,0 0,3.676 c 0,0.353 -0.089,0.595 -0.266,0.728 -0.175,0.133 -0.39,0.198 -0.644,0.198 -0.35,0 -0.651,-0.118 -0.903,-0.352 -0.252,-0.234 -0.378,-0.625 -0.378,-1.172 l 0,-3.078 -0.905,0 0,3.455 c 0,0.357 -0.043,0.621 -0.129,0.787 -0.134,0.246 -0.386,0.371 -0.756,0.371 -0.335,0 -0.642,-0.133 -0.917,-0.392 -0.275,-0.26 -0.413,-0.733 -0.413,-1.412 l 0,-2.809 -0.889,0"
         style="fill:#231f20;fill-opacity:1;fill-rule:nonzero;stroke:none"
         id="path3278" /><path
         inkscape:connector-curvature="0"
         d="m 261.134,415.111 c -0.305,-0.269 -0.459,-0.65 -0.459,-1.142 0,-0.446 0.156,-0.821 0.467,-1.119 0.312,-0.297 0.713,-0.448 1.204,-0.448 0.409,0 0.782,0.088 1.122,0.264 0.34,0.174 0.6,0.379 0.782,0.617 0.029,-0.211 0.08,-0.375 0.153,-0.488 0.138,-0.219 0.36,-0.328 0.667,-0.328 0.125,0 0.224,0.004 0.297,0.015 0.072,0.01 0.177,0.034 0.316,0.075 l 0,0.658 c -0.057,-0.012 -0.108,-0.02 -0.158,-0.024 -0.049,-0.006 -0.094,-0.007 -0.133,-0.007 -0.123,0 -0.203,0.027 -0.24,0.085 -0.038,0.055 -0.057,0.129 -0.057,0.221 l 0,3.051 c 0,0.5 -0.193,0.869 -0.578,1.107 -0.39,0.239 -0.895,0.356 -1.518,0.356 -0.538,0 -1.009,-0.127 -1.416,-0.383 -0.408,-0.256 -0.62,-0.709 -0.636,-1.363 l 0.83,0 c 0.033,0.273 0.104,0.482 0.213,0.619 0.195,0.25 0.524,0.375 0.989,0.375 0.401,0 0.711,-0.068 0.927,-0.203 0.216,-0.139 0.324,-0.36 0.324,-0.662 0,-0.147 -0.02,-0.262 -0.06,-0.34 -0.069,-0.145 -0.206,-0.233 -0.41,-0.256 l -1.419,-0.18 c -0.498,-0.062 -0.9,-0.228 -1.207,-0.5 z m 0.881,-0.379 c 0.161,0.092 0.403,0.159 0.727,0.202 l 0.539,0.07 c 0.164,0.019 0.332,0.053 0.504,0.099 0.172,0.045 0.311,0.104 0.42,0.174 l 0,-0.718 c 0,-0.547 -0.247,-0.94 -0.742,-1.182 -0.294,-0.145 -0.596,-0.219 -0.909,-0.219 -0.258,0 -0.48,0.074 -0.668,0.225 -0.187,0.146 -0.281,0.349 -0.281,0.607 0,0.338 0.137,0.588 0.41,0.742"
         style="fill:#231f20;fill-opacity:1;fill-rule:nonzero;stroke:none"
         id="path3280" /><path
         inkscape:connector-curvature="0"
         d="m 266.55,412.582 0,5.293 0.846,0 0,-0.752 c 0.25,0.311 0.516,0.533 0.797,0.668 0.279,0.137 0.591,0.203 0.933,0.203 0.752,0 1.26,-0.262 1.524,-0.787 0.144,-0.285 0.217,-0.695 0.217,-1.229 l 0,-3.396 -0.905,0 0,3.338 c 0,0.32 -0.048,0.58 -0.143,0.779 -0.158,0.328 -0.444,0.496 -0.861,0.496 -0.21,0 -0.384,-0.021 -0.519,-0.066 -0.244,-0.072 -0.457,-0.217 -0.643,-0.434 -0.148,-0.176 -0.244,-0.355 -0.289,-0.543 -0.045,-0.185 -0.066,-0.453 -0.066,-0.799 l 0,-2.771 -0.891,0"
         style="fill:#231f20;fill-opacity:1;fill-rule:nonzero;stroke:none"
         id="path3282" /><path
         inkscape:connector-curvature="0"
         d="m 272.179,418.836 0,1.008 0.904,0 0,-1.008 -0.904,0 z m 0,-6.254 0,5.268 0.904,0 0,-5.268 -0.904,0"
         style="fill:#231f20;fill-opacity:1;fill-rule:nonzero;stroke:none"
         id="path3284" /><path
         inkscape:connector-curvature="0"
         d="m 274.605,417.875 0,1.478 0.899,0 0,-1.478 0.845,0 0,-0.727 -0.845,0 0,-3.453 c 0,-0.187 0.063,-0.308 0.188,-0.371 0.069,-0.039 0.184,-0.055 0.347,-0.055 0.043,0 0.087,0 0.137,0 0.05,0.004 0.108,0.008 0.173,0.014 l 0,-0.701 c -0.101,-0.029 -0.208,-0.053 -0.318,-0.066 -0.111,-0.012 -0.231,-0.02 -0.359,-0.02 -0.415,0 -0.697,0.107 -0.845,0.318 -0.148,0.213 -0.222,0.491 -0.222,0.83 l 0,3.504 -0.717,0 0,0.727 0.717,0"
         style="fill:#231f20;fill-opacity:1;fill-rule:nonzero;stroke:none"
         id="path3286" /><path
         inkscape:connector-curvature="0"
         d="m 277.24,418.836 0,1.008 0.904,0 0,-1.008 -0.904,0 z m 0,-6.254 0,5.268 0.904,0 0,-5.268 -0.904,0"
         style="fill:#231f20;fill-opacity:1;fill-rule:nonzero;stroke:none"
         id="path3288" /><path
         inkscape:connector-curvature="0"
         d="m 279.882,417.199 c -0.462,-0.531 -0.692,-1.221 -0.692,-2.072 0,-0.863 0.229,-1.535 0.686,-2.016 0.459,-0.478 1.018,-0.717 1.677,-0.717 0.271,0 0.513,0.026 0.727,0.077 0.399,0.093 0.733,0.273 1.003,0.537 0.162,0.148 0.308,0.345 0.437,0.584 0.131,0.24 0.207,0.457 0.231,0.65 l -0.875,0 c -0.067,-0.234 -0.178,-0.439 -0.336,-0.619 -0.278,-0.307 -0.649,-0.457 -1.114,-0.457 -0.497,0 -0.864,0.162 -1.101,0.486 -0.237,0.323 -0.365,0.754 -0.381,1.293 l 3.881,0 c 0,0.533 -0.026,0.922 -0.079,1.166 -0.06,0.356 -0.179,0.666 -0.357,0.934 -0.183,0.279 -0.453,0.508 -0.804,0.683 -0.354,0.178 -0.718,0.266 -1.094,0.266 -0.744,0 -1.348,-0.266 -1.809,-0.795 z m 0.727,-0.422 c 0.277,0.293 0.619,0.442 1.028,0.442 0.57,0 0.978,-0.215 1.222,-0.645 0.131,-0.23 0.215,-0.537 0.252,-0.922 l -2.942,0 c 0.016,0.455 0.163,0.83 0.44,1.125"
         style="fill:#231f20;fill-opacity:1;fill-rule:nonzero;stroke:none"
         id="path3290" /><path
         inkscape:connector-curvature="0"
         d="m 284.789,414.242 0.855,0 c 0.026,-0.297 0.101,-0.525 0.223,-0.683 0.223,-0.286 0.613,-0.43 1.166,-0.43 0.33,0 0.62,0.074 0.871,0.215 0.25,0.144 0.375,0.367 0.375,0.668 0,0.224 -0.1,0.398 -0.301,0.517 -0.129,0.072 -0.383,0.156 -0.762,0.252 l -0.707,0.18 c -0.451,0.109 -0.785,0.234 -0.998,0.375 -0.383,0.238 -0.574,0.572 -0.574,0.996 0,0.504 0.181,0.908 0.541,1.217 0.361,0.31 0.847,0.467 1.457,0.467 0.797,0 1.372,-0.237 1.725,-0.704 0.22,-0.296 0.328,-0.617 0.321,-0.959 l -0.841,0 c -0.015,0.2 -0.087,0.383 -0.212,0.549 -0.204,0.235 -0.558,0.35 -1.063,0.35 -0.336,0 -0.59,-0.065 -0.764,-0.192 -0.173,-0.128 -0.26,-0.298 -0.26,-0.507 0,-0.233 0.115,-0.416 0.342,-0.557 0.131,-0.08 0.326,-0.154 0.583,-0.217 l 0.589,-0.142 c 0.639,-0.155 1.067,-0.305 1.285,-0.452 0.346,-0.224 0.52,-0.584 0.52,-1.07 0,-0.472 -0.18,-0.879 -0.537,-1.222 -0.358,-0.344 -0.903,-0.516 -1.634,-0.516 -0.788,0 -1.346,0.18 -1.673,0.539 -0.328,0.357 -0.504,0.799 -0.527,1.326"
         style="fill:#231f20;fill-opacity:1;fill-rule:nonzero;stroke:none"
         id="path3292" /><path
         inkscape:connector-curvature="0"
         d="m 146.809,400.582 0,3.113 2.239,0 c 0.402,0 0.697,-0.043 0.885,-0.133 0.33,-0.16 0.505,-0.48 0.529,-0.955 l 0.059,-1.209 c 0.013,-0.285 0.03,-0.474 0.05,-0.574 0.019,-0.099 0.046,-0.18 0.079,-0.242 l 1.206,0 0,0.162 c -0.151,0.065 -0.257,0.213 -0.316,0.445 -0.037,0.135 -0.06,0.34 -0.069,0.618 l -0.035,0.974 c -0.017,0.422 -0.097,0.727 -0.24,0.914 -0.143,0.188 -0.357,0.34 -0.64,0.457 0.323,0.168 0.574,0.389 0.754,0.664 0.179,0.278 0.269,0.633 0.269,1.071 0,0.832 -0.341,1.404 -1.023,1.714 -0.36,0.161 -0.816,0.243 -1.369,0.243 l -3.362,0 0,-7.262 0.984,0 z m 0,6.416 2.402,0 c 0.336,0 0.605,-0.049 0.806,-0.148 0.376,-0.188 0.564,-0.541 0.564,-1.059 0,-0.481 -0.135,-0.813 -0.403,-0.996 -0.269,-0.188 -0.634,-0.279 -1.095,-0.279 l -2.274,0 0,2.482"
         style="fill:#231f20;fill-opacity:1;fill-rule:nonzero;stroke:none"
         id="path3294" /><path
         inkscape:connector-curvature="0"
         d="m 153.292,405.199 c -0.461,-0.531 -0.692,-1.221 -0.692,-2.072 0,-0.863 0.229,-1.535 0.687,-2.016 0.459,-0.478 1.017,-0.717 1.676,-0.717 0.27,0 0.513,0.026 0.727,0.077 0.399,0.093 0.733,0.273 1.003,0.537 0.162,0.148 0.308,0.345 0.438,0.584 0.13,0.24 0.207,0.457 0.23,0.65 l -0.875,0 c -0.066,-0.234 -0.178,-0.439 -0.336,-0.619 -0.277,-0.307 -0.648,-0.457 -1.112,-0.457 -0.498,0 -0.866,0.162 -1.103,0.486 -0.237,0.323 -0.364,0.754 -0.381,1.293 l 3.881,0 c 0,0.533 -0.026,0.922 -0.079,1.166 -0.059,0.356 -0.178,0.666 -0.356,0.934 -0.185,0.279 -0.453,0.508 -0.806,0.683 -0.352,0.178 -0.716,0.266 -1.092,0.266 -0.745,0 -1.349,-0.266 -1.81,-0.795 z m 0.727,-0.422 c 0.277,0.293 0.62,0.442 1.028,0.442 0.57,0 0.977,-0.215 1.222,-0.645 0.131,-0.23 0.215,-0.537 0.252,-0.922 l -2.942,0 c 0.016,0.455 0.163,0.83 0.44,1.125"
         style="fill:#231f20;fill-opacity:1;fill-rule:nonzero;stroke:none"
         id="path3296" /><path
         inkscape:connector-curvature="0"
         d="m 158.199,402.242 0.855,0 c 0.027,-0.297 0.101,-0.525 0.223,-0.683 0.224,-0.286 0.613,-0.43 1.166,-0.43 0.33,0 0.62,0.074 0.87,0.215 0.251,0.144 0.376,0.367 0.376,0.668 0,0.224 -0.1,0.398 -0.301,0.517 -0.129,0.072 -0.383,0.156 -0.762,0.252 l -0.707,0.18 c -0.451,0.109 -0.784,0.234 -0.998,0.375 -0.382,0.238 -0.574,0.572 -0.574,0.996 0,0.504 0.181,0.908 0.542,1.217 0.361,0.31 0.846,0.467 1.456,0.467 0.797,0 1.372,-0.237 1.725,-0.704 0.221,-0.296 0.328,-0.617 0.322,-0.959 l -0.841,0 c -0.017,0.2 -0.088,0.383 -0.213,0.549 -0.204,0.235 -0.558,0.35 -1.063,0.35 -0.336,0 -0.59,-0.065 -0.763,-0.192 -0.174,-0.128 -0.26,-0.298 -0.26,-0.507 0,-0.233 0.114,-0.416 0.341,-0.557 0.132,-0.08 0.326,-0.154 0.584,-0.217 l 0.588,-0.142 c 0.639,-0.155 1.068,-0.305 1.285,-0.452 0.346,-0.224 0.519,-0.584 0.519,-1.07 0,-0.472 -0.178,-0.879 -0.536,-1.222 -0.358,-0.344 -0.902,-0.516 -1.634,-0.516 -0.788,0 -1.346,0.18 -1.673,0.539 -0.329,0.357 -0.504,0.799 -0.527,1.326"
         style="fill:#231f20;fill-opacity:1;fill-rule:nonzero;stroke:none"
         id="path3298" /><path
         inkscape:connector-curvature="0"
         d="m 163.983,405.199 c -0.461,-0.531 -0.692,-1.221 -0.692,-2.072 0,-0.863 0.229,-1.535 0.688,-2.016 0.458,-0.478 1.016,-0.717 1.675,-0.717 0.271,0 0.513,0.026 0.727,0.077 0.399,0.093 0.733,0.273 1.004,0.537 0.161,0.148 0.307,0.345 0.437,0.584 0.13,0.24 0.207,0.457 0.23,0.65 l -0.875,0 c -0.066,-0.234 -0.178,-0.439 -0.336,-0.619 -0.277,-0.307 -0.648,-0.457 -1.112,-0.457 -0.499,0 -0.866,0.162 -1.103,0.486 -0.237,0.323 -0.364,0.754 -0.38,1.293 l 3.88,0 c 0,0.533 -0.026,0.922 -0.079,1.166 -0.059,0.356 -0.178,0.666 -0.356,0.934 -0.184,0.279 -0.453,0.508 -0.806,0.683 -0.352,0.178 -0.717,0.266 -1.092,0.266 -0.745,0 -1.348,-0.266 -1.81,-0.795 z m 0.727,-0.422 c 0.277,0.293 0.62,0.442 1.028,0.442 0.571,0 0.978,-0.215 1.221,-0.645 0.132,-0.23 0.216,-0.537 0.253,-0.922 l -2.942,0 c 0.017,0.455 0.163,0.83 0.44,1.125"
         style="fill:#231f20;fill-opacity:1;fill-rule:nonzero;stroke:none"
         id="path3300" /><path
         inkscape:connector-curvature="0"
         d="m 169.429,403.111 c -0.306,-0.269 -0.46,-0.65 -0.46,-1.142 0,-0.446 0.156,-0.821 0.468,-1.119 0.311,-0.297 0.712,-0.448 1.203,-0.448 0.409,0 0.783,0.088 1.123,0.264 0.339,0.174 0.599,0.379 0.78,0.617 0.03,-0.211 0.082,-0.375 0.154,-0.488 0.138,-0.219 0.361,-0.328 0.667,-0.328 0.125,0 0.224,0.004 0.297,0.015 0.072,0.01 0.178,0.034 0.317,0.075 l 0,0.658 c -0.057,-0.012 -0.109,-0.02 -0.159,-0.024 -0.049,-0.006 -0.094,-0.007 -0.133,-0.007 -0.123,0 -0.202,0.027 -0.24,0.085 -0.038,0.055 -0.057,0.129 -0.057,0.221 l 0,3.051 c 0,0.5 -0.193,0.869 -0.578,1.107 -0.39,0.239 -0.895,0.356 -1.518,0.356 -0.538,0 -1.01,-0.127 -1.417,-0.383 -0.407,-0.256 -0.619,-0.709 -0.635,-1.363 l 0.831,0 c 0.032,0.273 0.103,0.482 0.212,0.619 0.195,0.25 0.524,0.375 0.989,0.375 0.402,0 0.711,-0.068 0.927,-0.203 0.216,-0.139 0.324,-0.36 0.324,-0.662 0,-0.147 -0.02,-0.262 -0.06,-0.34 -0.068,-0.145 -0.206,-0.233 -0.41,-0.256 l -1.419,-0.18 c -0.497,-0.062 -0.9,-0.228 -1.206,-0.5 z m 0.88,-0.379 c 0.161,0.092 0.404,0.159 0.727,0.202 l 0.539,0.07 c 0.164,0.019 0.332,0.053 0.504,0.099 0.171,0.045 0.312,0.104 0.42,0.174 l 0,-0.718 c 0,-0.547 -0.247,-0.94 -0.742,-1.182 -0.293,-0.145 -0.596,-0.219 -0.909,-0.219 -0.257,0 -0.48,0.074 -0.667,0.225 -0.188,0.146 -0.282,0.349 -0.282,0.607 0,0.338 0.136,0.588 0.41,0.742"
         style="fill:#231f20;fill-opacity:1;fill-rule:nonzero;stroke:none"
         id="path3302" /><path
         inkscape:connector-curvature="0"
         d="m 174.87,400.582 0,5.293 0.845,0 0,-0.914 c 0.069,0.18 0.239,0.396 0.509,0.65 0.271,0.254 0.582,0.383 0.935,0.383 0.016,0 0.044,0 0.084,-0.004 0.039,-0.004 0.107,-0.012 0.202,-0.021 l 0,-0.94 c -0.052,0.012 -0.101,0.018 -0.145,0.02 -0.045,0.004 -0.093,0.008 -0.146,0.008 -0.448,0 -0.793,-0.147 -1.033,-0.434 -0.241,-0.287 -0.361,-0.621 -0.361,-0.998 l 0,-3.043 -0.89,0"
         style="fill:#231f20;fill-opacity:1;fill-rule:nonzero;stroke:none"
         id="path3304" /><path
         inkscape:connector-curvature="0"
         d="m 180.256,406.029 c 0.597,0 1.082,-0.146 1.456,-0.435 0.374,-0.291 0.599,-0.789 0.674,-1.498 l -0.865,0 c -0.052,0.328 -0.172,0.597 -0.36,0.812 -0.188,0.217 -0.49,0.324 -0.905,0.324 -0.567,0 -0.972,-0.275 -1.216,-0.83 -0.158,-0.357 -0.237,-0.802 -0.237,-1.328 0,-0.533 0.112,-0.978 0.336,-1.342 0.224,-0.363 0.576,-0.543 1.058,-0.543 0.369,0 0.661,0.114 0.877,0.338 0.216,0.227 0.365,0.535 0.447,0.928 l 0.865,0 c -0.097,-0.703 -0.345,-1.215 -0.741,-1.539 -0.395,-0.326 -0.901,-0.488 -1.518,-0.488 -0.692,0 -1.244,0.254 -1.656,0.757 -0.412,0.506 -0.617,1.139 -0.617,1.897 0,0.93 0.225,1.654 0.677,2.17 0.451,0.517 1.026,0.777 1.725,0.777"
         style="fill:#231f20;fill-opacity:1;fill-rule:nonzero;stroke:none"
         id="path3306" /><path
         inkscape:connector-curvature="0"
         d="m 183.277,400.582 0,7.287 0.89,0 0,-2.711 c 0.21,0.27 0.4,0.457 0.568,0.565 0.287,0.187 0.644,0.281 1.073,0.281 0.768,0 1.289,-0.268 1.563,-0.805 0.148,-0.295 0.222,-0.701 0.222,-1.221 l 0,-3.396 -0.915,0 0,3.338 c 0,0.387 -0.05,0.672 -0.148,0.853 -0.161,0.289 -0.465,0.434 -0.909,0.434 -0.37,0 -0.704,-0.125 -1.004,-0.379 -0.301,-0.254 -0.45,-0.734 -0.45,-1.437 l 0,-2.809 -0.89,0"
         style="fill:#231f20;fill-opacity:1;fill-rule:nonzero;stroke:none"
         id="path3308" /><path
         inkscape:connector-curvature="0"
         d="m 194.897,408.041 c 0.92,0 1.634,-0.242 2.142,-0.727 0.506,-0.484 0.789,-1.035 0.844,-1.652 l -0.959,0 c -0.108,0.471 -0.325,0.84 -0.65,1.115 -0.325,0.272 -0.78,0.408 -1.366,0.408 -0.716,0 -1.293,-0.251 -1.734,-0.753 -0.44,-0.502 -0.66,-1.274 -0.66,-2.311 0,-0.852 0.198,-1.539 0.596,-2.068 0.397,-0.53 0.989,-0.795 1.777,-0.795 0.726,0 1.278,0.279 1.656,0.836 0.202,0.293 0.351,0.679 0.451,1.156 l 0.959,0 c -0.086,-0.764 -0.37,-1.406 -0.851,-1.922 -0.577,-0.625 -1.354,-0.934 -2.333,-0.934 -0.844,0 -1.553,0.254 -2.127,0.764 -0.754,0.678 -1.131,1.719 -1.131,3.131 0,1.072 0.283,1.951 0.85,2.635 0.613,0.746 1.459,1.117 2.536,1.117"
         style="fill:#231f20;fill-opacity:1;fill-rule:nonzero;stroke:none"
         id="path3310" /><path
         inkscape:connector-curvature="0"
         d="m 199.344,405.238 c -0.452,-0.527 -0.677,-1.236 -0.677,-2.127 0,-0.83 0.213,-1.492 0.643,-1.984 0.428,-0.492 1.006,-0.74 1.734,-0.74 0.874,0 1.518,0.279 1.934,0.836 0.415,0.556 0.623,1.263 0.623,2.117 0,0.883 -0.236,1.551 -0.707,2.006 -0.472,0.457 -1.049,0.683 -1.73,0.683 -0.762,0 -1.369,-0.263 -1.82,-0.791 z m 0.609,-3.521 c -0.248,0.377 -0.371,0.845 -0.371,1.41 0,0.588 0.123,1.088 0.371,1.502 0.247,0.416 0.642,0.623 1.185,0.623 0.613,0 1.045,-0.244 1.296,-0.731 0.158,-0.31 0.237,-0.712 0.237,-1.207 0,-0.545 -0.109,-1.045 -0.328,-1.49 -0.219,-0.447 -0.625,-0.67 -1.215,-0.67 -0.537,0 -0.928,0.188 -1.175,0.563"
         style="fill:#231f20;fill-opacity:1;fill-rule:nonzero;stroke:none"
         id="path3312" /><path
         inkscape:connector-curvature="0"
         d="m 204.636,405.875 0.91,0 0,-3.514 c 0,-0.271 0.043,-0.492 0.129,-0.662 0.158,-0.316 0.453,-0.476 0.885,-0.476 0.619,0 1.041,0.277 1.266,0.832 0.121,0.295 0.182,0.703 0.182,1.222 l 0,2.598 0.89,0 0,-5.293 -0.84,0 0.01,0.779 c -0.115,-0.201 -0.259,-0.371 -0.43,-0.508 -0.34,-0.277 -0.752,-0.416 -1.236,-0.416 -0.756,0 -1.27,0.252 -1.543,0.758 -0.149,0.27 -0.223,0.629 -0.223,1.082 l 0,3.598"
         style="fill:#231f20;fill-opacity:1;fill-rule:nonzero;stroke:none"
         id="path3314" /><path
         inkscape:connector-curvature="0"
         d="m 210.285,400.582 0,5.293 0.845,0 0,-0.752 c 0.25,0.311 0.516,0.533 0.796,0.668 0.281,0.137 0.592,0.203 0.935,0.203 0.752,0 1.259,-0.262 1.522,-0.787 0.146,-0.285 0.218,-0.695 0.218,-1.229 l 0,-3.396 -0.904,0 0,3.338 c 0,0.32 -0.049,0.58 -0.145,0.779 -0.158,0.328 -0.444,0.496 -0.859,0.496 -0.211,0 -0.385,-0.021 -0.52,-0.066 -0.244,-0.072 -0.458,-0.217 -0.642,-0.434 -0.149,-0.176 -0.244,-0.355 -0.289,-0.543 -0.045,-0.185 -0.067,-0.453 -0.067,-0.799 l 0,-2.771 -0.89,0"
         style="fill:#231f20;fill-opacity:1;fill-rule:nonzero;stroke:none"
         id="path3316" /><path
         inkscape:connector-curvature="0"
         d="m 217.955,406.029 c 0.597,0 1.082,-0.146 1.457,-0.435 0.373,-0.291 0.598,-0.789 0.673,-1.498 l -0.865,0 c -0.053,0.328 -0.172,0.597 -0.36,0.812 -0.188,0.217 -0.489,0.324 -0.905,0.324 -0.567,0 -0.972,-0.275 -1.215,-0.83 -0.158,-0.357 -0.239,-0.802 -0.239,-1.328 0,-0.533 0.113,-0.978 0.336,-1.342 0.225,-0.363 0.579,-0.543 1.059,-0.543 0.369,0 0.662,0.114 0.877,0.338 0.217,0.227 0.365,0.535 0.447,0.928 l 0.865,0 c -0.097,-0.703 -0.345,-1.215 -0.74,-1.539 -0.396,-0.326 -0.902,-0.488 -1.518,-0.488 -0.693,0 -1.244,0.254 -1.657,0.757 -0.411,0.506 -0.618,1.139 -0.618,1.897 0,0.93 0.227,1.654 0.678,2.17 0.451,0.517 1.026,0.777 1.725,0.777"
         style="fill:#231f20;fill-opacity:1;fill-rule:nonzero;stroke:none"
         id="path3318" /><path
         inkscape:connector-curvature="0"
         d="m 220.976,406.836 0,1.008 0.904,0 0,-1.008 -0.904,0 z m 0,-6.254 0,5.268 0.904,0 0,-5.268 -0.904,0"
         style="fill:#231f20;fill-opacity:1;fill-rule:nonzero;stroke:none"
         id="path3320" /><path
         inkscape:connector-curvature="0"
         d="m 223.248,400.582 0.88984,0 0,7.26211 -0.88984,0 0,-7.26211 z"
         style="fill:#231f20;fill-opacity:1;fill-rule:nonzero;stroke:none"
         id="path3322" /><path
         inkscape:connector-curvature="0"
         d="m 228.599,405.238 c -0.451,-0.527 -0.678,-1.236 -0.678,-2.127 0,-0.83 0.215,-1.492 0.644,-1.984 0.429,-0.492 1.007,-0.74 1.735,-0.74 0.873,0 1.518,0.279 1.934,0.836 0.414,0.556 0.622,1.263 0.622,2.117 0,0.883 -0.235,1.551 -0.707,2.006 -0.472,0.457 -1.048,0.683 -1.73,0.683 -0.761,0 -1.369,-0.263 -1.82,-0.791 z m 0.609,-3.521 c -0.248,0.377 -0.371,0.845 -0.371,1.41 0,0.588 0.123,1.088 0.371,1.502 0.247,0.416 0.642,0.623 1.186,0.623 0.613,0 1.045,-0.244 1.295,-0.731 0.158,-0.31 0.238,-0.712 0.238,-1.207 0,-0.545 -0.11,-1.045 -0.33,-1.49 -0.219,-0.447 -0.623,-0.67 -1.213,-0.67 -0.537,0 -0.929,0.188 -1.176,0.563"
         style="fill:#231f20;fill-opacity:1;fill-rule:nonzero;stroke:none"
         id="path3324" /><path
         inkscape:connector-curvature="0"
         d="m 234.134,406.682 c 0.013,0.371 0.077,0.638 0.193,0.812 0.208,0.301 0.608,0.455 1.202,0.455 0.054,0 0.113,-0.004 0.172,-0.008 0.06,-0.004 0.127,-0.007 0.203,-0.013 l 0,-0.811 c -0.092,0.006 -0.159,0.01 -0.2,0.012 -0.041,0.002 -0.08,0.004 -0.117,0.004 -0.269,0 -0.431,-0.073 -0.484,-0.211 -0.053,-0.141 -0.079,-0.498 -0.079,-1.072 l 0.88,0 0,-0.702 -0.89,0 0,-4.566 -0.88,0 0,4.566 -0.736,0 0,0.702 0.736,0 0,0.832"
         style="fill:#231f20;fill-opacity:1;fill-rule:nonzero;stroke:none"
         id="path3326" /><path
         inkscape:connector-curvature="0"
         d="m 242.716,408.041 c 0.92,0 1.633,-0.242 2.141,-0.727 0.508,-0.484 0.789,-1.035 0.846,-1.652 l -0.959,0 c -0.11,0.471 -0.327,0.84 -0.651,1.115 -0.324,0.272 -0.78,0.408 -1.367,0.408 -0.715,0 -1.293,-0.251 -1.732,-0.753 -0.44,-0.502 -0.661,-1.274 -0.661,-2.311 0,-0.852 0.2,-1.539 0.596,-2.068 0.397,-0.53 0.99,-0.795 1.778,-0.795 0.724,0 1.277,0.279 1.656,0.836 0.201,0.293 0.351,0.679 0.45,1.156 l 0.959,0 c -0.086,-0.764 -0.37,-1.406 -0.851,-1.922 -0.576,-0.625 -1.354,-0.934 -2.334,-0.934 -0.843,0 -1.551,0.254 -2.125,0.764 -0.754,0.678 -1.132,1.719 -1.132,3.131 0,1.072 0.283,1.951 0.85,2.635 0.613,0.746 1.458,1.117 2.536,1.117"
         style="fill:#231f20;fill-opacity:1;fill-rule:nonzero;stroke:none"
         id="path3328" /><path
         inkscape:connector-curvature="0"
         d="m 247.06,403.111 c -0.307,-0.269 -0.46,-0.65 -0.46,-1.142 0,-0.446 0.155,-0.821 0.468,-1.119 0.31,-0.297 0.712,-0.448 1.203,-0.448 0.408,0 0.783,0.088 1.122,0.264 0.34,0.174 0.601,0.379 0.781,0.617 0.031,-0.211 0.081,-0.375 0.154,-0.488 0.138,-0.219 0.361,-0.328 0.668,-0.328 0.125,0 0.223,0.004 0.296,0.015 0.073,0.01 0.178,0.034 0.316,0.075 l 0,0.658 c -0.056,-0.012 -0.108,-0.02 -0.158,-0.024 -0.05,-0.006 -0.094,-0.007 -0.134,-0.007 -0.121,0 -0.201,0.027 -0.239,0.085 -0.038,0.055 -0.057,0.129 -0.057,0.221 l 0,3.051 c 0,0.5 -0.192,0.869 -0.579,1.107 -0.389,0.239 -0.895,0.356 -1.518,0.356 -0.537,0 -1.009,-0.127 -1.416,-0.383 -0.407,-0.256 -0.619,-0.709 -0.634,-1.363 l 0.83,0 c 0.033,0.273 0.103,0.482 0.213,0.619 0.193,0.25 0.523,0.375 0.988,0.375 0.402,0 0.711,-0.068 0.927,-0.203 0.215,-0.139 0.324,-0.36 0.324,-0.662 0,-0.147 -0.021,-0.262 -0.06,-0.34 -0.069,-0.145 -0.206,-0.233 -0.41,-0.256 l -1.419,-0.18 c -0.498,-0.062 -0.899,-0.228 -1.206,-0.5 z m 0.88,-0.379 c 0.161,0.092 0.403,0.159 0.727,0.202 l 0.539,0.07 c 0.165,0.019 0.333,0.053 0.503,0.099 0.171,0.045 0.312,0.104 0.421,0.174 l 0,-0.718 c 0,-0.547 -0.248,-0.94 -0.742,-1.182 -0.293,-0.145 -0.596,-0.219 -0.91,-0.219 -0.256,0 -0.478,0.074 -0.667,0.225 -0.187,0.146 -0.282,0.349 -0.282,0.607 0,0.338 0.137,0.588 0.411,0.742"
         style="fill:#231f20;fill-opacity:1;fill-rule:nonzero;stroke:none"
         id="path3330" /><path
         inkscape:connector-curvature="0"
         d="m 252.476,400.582 0,5.293 0.846,0 0,-0.752 c 0.25,0.311 0.515,0.533 0.795,0.668 0.28,0.137 0.591,0.203 0.934,0.203 0.752,0 1.259,-0.262 1.523,-0.787 0.145,-0.285 0.218,-0.695 0.218,-1.229 l 0,-3.396 -0.905,0 0,3.338 c 0,0.32 -0.048,0.58 -0.143,0.779 -0.159,0.328 -0.446,0.496 -0.861,0.496 -0.211,0 -0.383,-0.021 -0.518,-0.066 -0.244,-0.072 -0.459,-0.217 -0.643,-0.434 -0.148,-0.176 -0.245,-0.355 -0.289,-0.543 -0.045,-0.185 -0.067,-0.453 -0.067,-0.799 l 0,-2.771 -0.89,0"
         style="fill:#231f20;fill-opacity:1;fill-rule:nonzero;stroke:none"
         id="path3332" /><path
         inkscape:connector-curvature="0"
         d="m 258.317,403.111 c -0.307,-0.269 -0.46,-0.65 -0.46,-1.142 0,-0.446 0.156,-0.821 0.467,-1.119 0.312,-0.297 0.713,-0.448 1.205,-0.448 0.408,0 0.781,0.088 1.121,0.264 0.34,0.174 0.6,0.379 0.781,0.617 0.03,-0.211 0.081,-0.375 0.154,-0.488 0.138,-0.219 0.361,-0.328 0.666,-0.328 0.126,0 0.225,0.004 0.297,0.015 0.073,0.01 0.178,0.034 0.317,0.075 l 0,0.658 c -0.056,-0.012 -0.109,-0.02 -0.158,-0.024 -0.049,-0.006 -0.094,-0.007 -0.133,-0.007 -0.122,0 -0.202,0.027 -0.241,0.085 -0.037,0.055 -0.056,0.129 -0.056,0.221 l 0,3.051 c 0,0.5 -0.194,0.869 -0.578,1.107 -0.389,0.239 -0.895,0.356 -1.518,0.356 -0.537,0 -1.01,-0.127 -1.417,-0.383 -0.407,-0.256 -0.618,-0.709 -0.636,-1.363 l 0.831,0 c 0.034,0.273 0.105,0.482 0.213,0.619 0.195,0.25 0.525,0.375 0.99,0.375 0.401,0 0.711,-0.068 0.925,-0.203 0.217,-0.139 0.325,-0.36 0.325,-0.662 0,-0.147 -0.02,-0.262 -0.059,-0.34 -0.07,-0.145 -0.207,-0.233 -0.411,-0.256 l -1.419,-0.18 c -0.498,-0.062 -0.899,-0.228 -1.206,-0.5 z m 0.88,-0.379 c 0.162,0.092 0.404,0.159 0.726,0.202 l 0.539,0.07 c 0.164,0.019 0.333,0.053 0.504,0.099 0.172,0.045 0.313,0.104 0.421,0.174 l 0,-0.718 c 0,-0.547 -0.247,-0.94 -0.741,-1.182 -0.294,-0.145 -0.598,-0.219 -0.91,-0.219 -0.258,0 -0.48,0.074 -0.668,0.225 -0.188,0.146 -0.281,0.349 -0.281,0.607 0,0.338 0.136,0.588 0.41,0.742"
         style="fill:#231f20;fill-opacity:1;fill-rule:nonzero;stroke:none"
         id="path3334" /><path
         inkscape:connector-curvature="0"
         d="m 263.948,405.121 c -0.394,-0.564 -0.591,-1.232 -0.591,-2.002 0,-0.824 0.217,-1.486 0.648,-1.982 0.432,-0.496 0.942,-0.743 1.533,-0.743 0.366,0 0.69,0.071 0.973,0.217 0.283,0.145 0.53,0.379 0.737,0.705 l 0,-0.734 0.8,0 0,7.287 -0.855,0 0,-2.674 c -0.201,0.244 -0.38,0.42 -0.538,0.518 -0.275,0.17 -0.613,0.256 -1.019,0.256 -0.731,0 -1.295,-0.282 -1.688,-0.848 z m 0.766,-0.441 c 0.279,0.343 0.642,0.515 1.09,0.515 0.403,0 0.74,-0.162 1.014,-0.484 0.273,-0.32 0.41,-0.817 0.41,-1.486 0,-0.663 -0.133,-1.168 -0.398,-1.524 -0.265,-0.355 -0.604,-0.531 -1.016,-0.531 -0.53,0 -0.916,0.191 -1.156,0.574 -0.241,0.381 -0.362,0.856 -0.362,1.422 0,0.666 0.139,1.17 0.418,1.514"
         style="fill:#231f20;fill-opacity:1;fill-rule:nonzero;stroke:none"
         id="path3336" /><path
         inkscape:connector-curvature="0"
         d="m 269.574,403.111 c -0.307,-0.269 -0.459,-0.65 -0.459,-1.142 0,-0.446 0.155,-0.821 0.467,-1.119 0.311,-0.297 0.712,-0.448 1.203,-0.448 0.409,0 0.783,0.088 1.123,0.264 0.34,0.174 0.599,0.379 0.781,0.617 0.029,-0.211 0.08,-0.375 0.152,-0.488 0.139,-0.219 0.362,-0.328 0.668,-0.328 0.125,0 0.225,0.004 0.297,0.015 0.072,0.01 0.178,0.034 0.317,0.075 l 0,0.658 c -0.057,-0.012 -0.11,-0.02 -0.159,-0.024 -0.049,-0.006 -0.093,-0.007 -0.133,-0.007 -0.123,0 -0.203,0.027 -0.24,0.085 -0.039,0.055 -0.056,0.129 -0.056,0.221 l 0,3.051 c 0,0.5 -0.194,0.869 -0.579,1.107 -0.39,0.239 -0.896,0.356 -1.518,0.356 -0.538,0 -1.01,-0.127 -1.417,-0.383 -0.406,-0.256 -0.619,-0.709 -0.635,-1.363 l 0.83,0 c 0.034,0.273 0.105,0.482 0.213,0.619 0.195,0.25 0.525,0.375 0.988,0.375 0.403,0 0.711,-0.068 0.928,-0.203 0.216,-0.139 0.324,-0.36 0.324,-0.662 0,-0.147 -0.02,-0.262 -0.06,-0.34 -0.068,-0.145 -0.205,-0.233 -0.41,-0.256 l -1.418,-0.18 c -0.498,-0.062 -0.901,-0.228 -1.207,-0.5 z m 0.881,-0.379 c 0.161,0.092 0.403,0.159 0.726,0.202 l 0.539,0.07 c 0.164,0.019 0.332,0.053 0.504,0.099 0.172,0.045 0.311,0.104 0.42,0.174 l 0,-0.718 c 0,-0.547 -0.247,-0.94 -0.742,-1.182 -0.293,-0.145 -0.596,-0.219 -0.909,-0.219 -0.257,0 -0.48,0.074 -0.667,0.225 -0.188,0.146 -0.282,0.349 -0.282,0.607 0,0.338 0.136,0.588 0.411,0.742"
         style="fill:#231f20;fill-opacity:1;fill-rule:nonzero;stroke:none"
         id="path3338" /><path
         inkscape:connector-curvature="0"
         d="m 314.011,420.041 c 0.919,0 1.633,-0.242 2.14,-0.727 0.508,-0.484 0.79,-1.035 0.846,-1.652 l -0.959,0 c -0.109,0.471 -0.326,0.84 -0.65,1.115 -0.325,0.272 -0.781,0.408 -1.367,0.408 -0.716,0 -1.293,-0.251 -1.733,-0.753 -0.44,-0.502 -0.66,-1.274 -0.66,-2.311 0,-0.852 0.199,-1.539 0.596,-2.068 0.397,-0.53 0.989,-0.795 1.777,-0.795 0.725,0 1.277,0.279 1.656,0.836 0.201,0.293 0.351,0.679 0.45,1.156 l 0.959,0 c -0.086,-0.764 -0.369,-1.406 -0.85,-1.922 -0.577,-0.625 -1.355,-0.934 -2.334,-0.934 -0.843,0 -1.552,0.254 -2.126,0.764 -0.755,0.678 -1.132,1.719 -1.132,3.131 0,1.072 0.284,1.951 0.851,2.635 0.612,0.746 1.458,1.117 2.536,1.117"
         style="fill:#231f20;fill-opacity:1;fill-rule:nonzero;stroke:none"
         id="path3340" /><path
         inkscape:connector-curvature="0"
         d="m 318.458,417.238 c -0.452,-0.527 -0.677,-1.236 -0.677,-2.127 0,-0.83 0.214,-1.492 0.642,-1.984 0.429,-0.492 1.007,-0.74 1.736,-0.74 0.873,0 1.517,0.279 1.932,0.836 0.416,0.556 0.623,1.263 0.623,2.117 0,0.883 -0.235,1.551 -0.707,2.006 -0.471,0.457 -1.048,0.683 -1.73,0.683 -0.761,0 -1.368,-0.263 -1.819,-0.791 z m 0.608,-3.521 c -0.247,0.377 -0.371,0.845 -0.371,1.41 0,0.588 0.124,1.088 0.371,1.502 0.247,0.416 0.642,0.623 1.186,0.623 0.613,0 1.045,-0.244 1.296,-0.731 0.158,-0.31 0.237,-0.712 0.237,-1.207 0,-0.545 -0.11,-1.045 -0.329,-1.49 -0.219,-0.447 -0.623,-0.67 -1.213,-0.67 -0.538,0 -0.93,0.188 -1.177,0.563"
         style="fill:#231f20;fill-opacity:1;fill-rule:nonzero;stroke:none"
         id="path3342" /><path
         inkscape:connector-curvature="0"
         d="m 323.77,412.582 0,5.293 0.845,0 0,-0.752 c 0.251,0.311 0.516,0.533 0.796,0.668 0.28,0.137 0.592,0.203 0.935,0.203 0.751,0 1.259,-0.262 1.523,-0.787 0.144,-0.285 0.217,-0.695 0.217,-1.229 l 0,-3.396 -0.905,0 0,3.338 c 0,0.32 -0.048,0.58 -0.143,0.779 -0.159,0.328 -0.445,0.496 -0.86,0.496 -0.212,0 -0.385,-0.021 -0.519,-0.066 -0.244,-0.072 -0.459,-0.217 -0.643,-0.434 -0.148,-0.176 -0.245,-0.355 -0.289,-0.543 -0.045,-0.185 -0.067,-0.453 -0.067,-0.799 l 0,-2.771 -0.89,0"
         style="fill:#231f20;fill-opacity:1;fill-rule:nonzero;stroke:none"
         id="path3344" /><path
         inkscape:connector-curvature="0"
         d="m 329.072,414.242 0.856,0 c 0.026,-0.297 0.1,-0.525 0.222,-0.683 0.225,-0.286 0.613,-0.43 1.167,-0.43 0.329,0 0.619,0.074 0.87,0.215 0.25,0.144 0.375,0.367 0.375,0.668 0,0.224 -0.1,0.398 -0.301,0.517 -0.129,0.072 -0.383,0.156 -0.761,0.252 l -0.708,0.18 c -0.451,0.109 -0.784,0.234 -0.998,0.375 -0.382,0.238 -0.573,0.572 -0.573,0.996 0,0.504 0.18,0.908 0.541,1.217 0.361,0.31 0.846,0.467 1.455,0.467 0.798,0 1.373,-0.237 1.726,-0.704 0.221,-0.296 0.328,-0.617 0.322,-0.959 l -0.841,0 c -0.016,0.2 -0.087,0.383 -0.213,0.549 -0.204,0.235 -0.558,0.35 -1.063,0.35 -0.336,0 -0.59,-0.065 -0.764,-0.192 -0.172,-0.128 -0.259,-0.298 -0.259,-0.507 0,-0.233 0.114,-0.416 0.341,-0.557 0.132,-0.08 0.326,-0.154 0.584,-0.217 l 0.588,-0.142 c 0.639,-0.155 1.069,-0.305 1.285,-0.452 0.347,-0.224 0.52,-0.584 0.52,-1.07 0,-0.472 -0.18,-0.879 -0.537,-1.222 -0.358,-0.344 -0.902,-0.516 -1.634,-0.516 -0.788,0 -1.345,0.18 -1.673,0.539 -0.328,0.357 -0.504,0.799 -0.527,1.326"
         style="fill:#231f20;fill-opacity:1;fill-rule:nonzero;stroke:none"
         id="path3346" /><path
         inkscape:connector-curvature="0"
         d="m 334.857,417.199 c -0.462,-0.531 -0.692,-1.221 -0.692,-2.072 0,-0.863 0.228,-1.535 0.686,-2.016 0.458,-0.478 1.018,-0.717 1.676,-0.717 0.271,0 0.514,0.026 0.727,0.077 0.399,0.093 0.734,0.273 1.004,0.537 0.161,0.148 0.308,0.345 0.438,0.584 0.13,0.24 0.206,0.457 0.229,0.65 l -0.875,0 c -0.066,-0.234 -0.177,-0.439 -0.336,-0.619 -0.277,-0.307 -0.647,-0.457 -1.113,-0.457 -0.497,0 -0.864,0.162 -1.101,0.486 -0.238,0.323 -0.366,0.754 -0.381,1.293 l 3.881,0 c 0,0.533 -0.027,0.922 -0.08,1.166 -0.059,0.356 -0.177,0.666 -0.356,0.934 -0.185,0.279 -0.452,0.508 -0.806,0.683 -0.352,0.178 -0.716,0.266 -1.091,0.266 -0.747,0 -1.349,-0.266 -1.81,-0.795 z m 0.726,-0.422 c 0.277,0.293 0.62,0.442 1.029,0.442 0.569,0 0.977,-0.215 1.221,-0.645 0.131,-0.23 0.215,-0.537 0.252,-0.922 l -2.942,0 c 0.017,0.455 0.163,0.83 0.44,1.125"
         style="fill:#231f20;fill-opacity:1;fill-rule:nonzero;stroke:none"
         id="path3348" /><path
         inkscape:connector-curvature="0"
         d="m 340.089,418.836 0,1.008 0.905,0 0,-1.008 -0.905,0 z m 0,-6.254 0,5.268 0.905,0 0,-5.268 -0.905,0"
         style="fill:#231f20;fill-opacity:1;fill-rule:nonzero;stroke:none"
         id="path3350" /><path
         inkscape:connector-curvature="0"
         d="m 342.362,412.582 0.88906,0 0,7.26211 -0.88906,0 0,-7.26211 z"
         style="fill:#231f20;fill-opacity:1;fill-rule:nonzero;stroke:none"
         id="path3352" /><path
         inkscape:connector-curvature="0"
         d="m 347.612,417.121 c -0.395,-0.564 -0.591,-1.232 -0.591,-2.002 0,-0.824 0.216,-1.486 0.647,-1.982 0.432,-0.496 0.944,-0.743 1.533,-0.743 0.366,0 0.691,0.071 0.974,0.217 0.283,0.145 0.53,0.379 0.737,0.705 l 0,-0.734 0.8,0 0,7.287 -0.854,0 0,-2.674 c -0.202,0.244 -0.382,0.42 -0.54,0.518 -0.273,0.17 -0.612,0.256 -1.018,0.256 -0.732,0 -1.295,-0.282 -1.688,-0.848 z m 0.766,-0.441 c 0.278,0.343 0.642,0.515 1.09,0.515 0.402,0 0.74,-0.162 1.013,-0.484 0.274,-0.32 0.411,-0.817 0.411,-1.486 0,-0.663 -0.133,-1.168 -0.398,-1.524 -0.265,-0.355 -0.605,-0.531 -1.016,-0.531 -0.531,0 -0.916,0.191 -1.157,0.574 -0.24,0.381 -0.361,0.856 -0.361,1.422 0,0.666 0.14,1.17 0.418,1.514"
         style="fill:#231f20;fill-opacity:1;fill-rule:nonzero;stroke:none"
         id="path3354" /><path
         inkscape:connector-curvature="0"
         d="m 353.421,417.199 c -0.462,-0.531 -0.692,-1.221 -0.692,-2.072 0,-0.863 0.229,-1.535 0.687,-2.016 0.458,-0.478 1.016,-0.717 1.676,-0.717 0.27,0 0.512,0.026 0.726,0.077 0.399,0.093 0.733,0.273 1.004,0.537 0.162,0.148 0.307,0.345 0.437,0.584 0.13,0.24 0.207,0.457 0.23,0.65 l -0.875,0 c -0.066,-0.234 -0.178,-0.439 -0.336,-0.619 -0.277,-0.307 -0.648,-0.457 -1.111,-0.457 -0.5,0 -0.866,0.162 -1.103,0.486 -0.238,0.323 -0.364,0.754 -0.382,1.293 l 3.882,0 c 0,0.533 -0.026,0.922 -0.079,1.166 -0.06,0.356 -0.179,0.666 -0.357,0.934 -0.184,0.279 -0.453,0.508 -0.805,0.683 -0.353,0.178 -0.717,0.266 -1.093,0.266 -0.745,0 -1.349,-0.266 -1.809,-0.795 z m 0.726,-0.422 c 0.277,0.293 0.62,0.442 1.029,0.442 0.57,0 0.977,-0.215 1.221,-0.645 0.132,-0.23 0.216,-0.537 0.252,-0.922 l -2.941,0 c 0.015,0.455 0.163,0.83 0.439,1.125"
         style="fill:#231f20;fill-opacity:1;fill-rule:nonzero;stroke:none"
         id="path3356" /><path
         inkscape:connector-curvature="0"
         d="m 361.492,412.582 0,5.293 0.844,0 0,-0.914 c 0.07,0.18 0.24,0.396 0.51,0.65 0.27,0.254 0.582,0.383 0.935,0.383 0.016,0 0.045,0 0.084,-0.004 0.04,-0.004 0.107,-0.012 0.203,-0.021 l 0,-0.94 c -0.054,0.012 -0.103,0.018 -0.147,0.02 -0.045,0.004 -0.092,0.008 -0.145,0.008 -0.449,0 -0.793,-0.147 -1.033,-0.434 -0.242,-0.287 -0.362,-0.621 -0.362,-0.998 l 0,-3.043 -0.889,0"
         style="fill:#231f20;fill-opacity:1;fill-rule:nonzero;stroke:none"
         id="path3358" /><path
         inkscape:connector-curvature="0"
         d="m 365.231,417.199 c -0.461,-0.531 -0.691,-1.221 -0.691,-2.072 0,-0.863 0.228,-1.535 0.686,-2.016 0.458,-0.478 1.017,-0.717 1.676,-0.717 0.27,0 0.513,0.026 0.727,0.077 0.399,0.093 0.734,0.273 1.004,0.537 0.161,0.148 0.307,0.345 0.438,0.584 0.13,0.24 0.206,0.457 0.229,0.65 l -0.875,0 c -0.065,-0.234 -0.177,-0.439 -0.336,-0.619 -0.277,-0.307 -0.647,-0.457 -1.113,-0.457 -0.497,0 -0.864,0.162 -1.102,0.486 -0.237,0.323 -0.365,0.754 -0.38,1.293 l 3.881,0 c 0,0.533 -0.027,0.922 -0.08,1.166 -0.059,0.356 -0.177,0.666 -0.356,0.934 -0.184,0.279 -0.452,0.508 -0.806,0.683 -0.352,0.178 -0.716,0.266 -1.091,0.266 -0.746,0 -1.349,-0.266 -1.811,-0.795 z m 0.727,-0.422 c 0.277,0.293 0.62,0.442 1.029,0.442 0.569,0 0.976,-0.215 1.221,-0.645 0.131,-0.23 0.215,-0.537 0.251,-0.922 l -2.941,0 c 0.017,0.455 0.163,0.83 0.44,1.125"
         style="fill:#231f20;fill-opacity:1;fill-rule:nonzero;stroke:none"
         id="path3360" /><path
         inkscape:connector-curvature="0"
         d="m 372.506,418.029 c 0.597,0 1.082,-0.146 1.456,-0.435 0.374,-0.291 0.599,-0.789 0.675,-1.498 l -0.865,0 c -0.053,0.328 -0.173,0.597 -0.361,0.812 -0.188,0.217 -0.489,0.324 -0.905,0.324 -0.567,0 -0.971,-0.275 -1.216,-0.83 -0.159,-0.357 -0.237,-0.802 -0.237,-1.328 0,-0.533 0.112,-0.978 0.336,-1.342 0.225,-0.363 0.576,-0.543 1.058,-0.543 0.37,0 0.662,0.114 0.878,0.338 0.216,0.227 0.364,0.535 0.447,0.928 l 0.865,0 c -0.098,-0.703 -0.345,-1.215 -0.742,-1.539 -0.395,-0.326 -0.901,-0.488 -1.518,-0.488 -0.692,0 -1.244,0.254 -1.655,0.757 -0.413,0.506 -0.618,1.139 -0.618,1.897 0,0.93 0.226,1.654 0.677,2.17 0.452,0.517 1.026,0.777 1.725,0.777"
         style="fill:#231f20;fill-opacity:1;fill-rule:nonzero;stroke:none"
         id="path3362" /><path
         inkscape:connector-curvature="0"
         d="m 375.527,412.582 0,7.287 0.89,0 0,-2.711 c 0.21,0.27 0.401,0.457 0.568,0.565 0.287,0.187 0.645,0.281 1.073,0.281 0.768,0 1.289,-0.268 1.563,-0.805 0.148,-0.295 0.222,-0.701 0.222,-1.221 l 0,-3.396 -0.915,0 0,3.338 c 0,0.387 -0.049,0.672 -0.147,0.853 -0.162,0.289 -0.466,0.434 -0.91,0.434 -0.37,0 -0.704,-0.125 -1.004,-0.379 -0.3,-0.254 -0.45,-0.734 -0.45,-1.437 l 0,-2.809 -0.89,0"
         style="fill:#231f20;fill-opacity:1;fill-rule:nonzero;stroke:none"
         id="path3364" /><path
         inkscape:connector-curvature="0"
         d="m 381.551,417.199 c -0.462,-0.531 -0.692,-1.221 -0.692,-2.072 0,-0.863 0.229,-1.535 0.687,-2.016 0.458,-0.478 1.017,-0.717 1.676,-0.717 0.271,0 0.513,0.026 0.727,0.077 0.398,0.093 0.733,0.273 1.004,0.537 0.161,0.148 0.306,0.345 0.437,0.584 0.13,0.24 0.207,0.457 0.23,0.65 l -0.875,0 c -0.067,-0.234 -0.178,-0.439 -0.336,-0.619 -0.278,-0.307 -0.648,-0.457 -1.113,-0.457 -0.498,0 -0.865,0.162 -1.102,0.486 -0.237,0.323 -0.364,0.754 -0.381,1.293 l 3.881,0 c 0,0.533 -0.027,0.922 -0.078,1.166 -0.061,0.356 -0.179,0.666 -0.357,0.934 -0.184,0.279 -0.454,0.508 -0.805,0.683 -0.353,0.178 -0.717,0.266 -1.093,0.266 -0.745,0 -1.348,-0.266 -1.81,-0.795 z m 0.727,-0.422 c 0.277,0.293 0.619,0.442 1.028,0.442 0.57,0 0.978,-0.215 1.221,-0.645 0.133,-0.23 0.216,-0.537 0.253,-0.922 l -2.942,0 c 0.017,0.455 0.163,0.83 0.44,1.125"
         style="fill:#231f20;fill-opacity:1;fill-rule:nonzero;stroke:none"
         id="path3366" /><path
         inkscape:connector-curvature="0"
         d="m 386.809,412.582 0,5.293 0.846,0 0,-0.914 c 0.068,0.18 0.238,0.396 0.509,0.65 0.27,0.254 0.581,0.383 0.934,0.383 0.016,0 0.045,0 0.084,-0.004 0.04,-0.004 0.107,-0.012 0.202,-0.021 l 0,-0.94 c -0.051,0.012 -0.1,0.018 -0.145,0.02 -0.045,0.004 -0.094,0.008 -0.146,0.008 -0.448,0 -0.793,-0.147 -1.034,-0.434 -0.24,-0.287 -0.36,-0.621 -0.36,-0.998 l 0,-3.043 -0.89,0"
         style="fill:#231f20;fill-opacity:1;fill-rule:nonzero;stroke:none"
         id="path3368" /><path
         inkscape:connector-curvature="0"
         d="m 392.196,418.029 c 0.596,0 1.081,-0.146 1.455,-0.435 0.375,-0.291 0.599,-0.789 0.675,-1.498 l -0.865,0 c -0.052,0.328 -0.173,0.597 -0.361,0.812 -0.187,0.217 -0.49,0.324 -0.904,0.324 -0.568,0 -0.973,-0.275 -1.217,-0.83 -0.158,-0.357 -0.237,-0.802 -0.237,-1.328 0,-0.533 0.112,-0.978 0.337,-1.342 0.223,-0.363 0.576,-0.543 1.056,-0.543 0.37,0 0.662,0.114 0.878,0.338 0.217,0.227 0.365,0.535 0.448,0.928 l 0.865,0 c -0.099,-0.703 -0.346,-1.215 -0.742,-1.539 -0.395,-0.326 -0.901,-0.488 -1.517,-0.488 -0.692,0 -1.245,0.254 -1.656,0.757 -0.412,0.506 -0.619,1.139 -0.619,1.897 0,0.93 0.226,1.654 0.677,2.17 0.452,0.517 1.028,0.777 1.727,0.777"
         style="fill:#231f20;fill-opacity:1;fill-rule:nonzero;stroke:none"
         id="path3370" /><path
         inkscape:connector-curvature="0"
         d="m 395.215,412.582 0,7.287 0.891,0 0,-2.711 c 0.211,0.27 0.4,0.457 0.568,0.565 0.287,0.187 0.645,0.281 1.073,0.281 0.768,0 1.289,-0.268 1.562,-0.805 0.149,-0.295 0.223,-0.701 0.223,-1.221 l 0,-3.396 -0.914,0 0,3.338 c 0,0.387 -0.05,0.672 -0.149,0.853 -0.162,0.289 -0.465,0.434 -0.91,0.434 -0.369,0 -0.704,-0.125 -1.004,-0.379 -0.3,-0.254 -0.449,-0.734 -0.449,-1.437 l 0,-2.809 -0.891,0"
         style="fill:#231f20;fill-opacity:1;fill-rule:nonzero;stroke:none"
         id="path3372" /><path
         inkscape:connector-curvature="0"
         d="m 401.241,417.199 c -0.462,-0.531 -0.694,-1.221 -0.694,-2.072 0,-0.863 0.23,-1.535 0.688,-2.016 0.458,-0.478 1.016,-0.717 1.676,-0.717 0.27,0 0.512,0.026 0.727,0.077 0.399,0.093 0.734,0.273 1.004,0.537 0.161,0.148 0.307,0.345 0.438,0.584 0.129,0.24 0.206,0.457 0.229,0.65 l -0.875,0 c -0.066,-0.234 -0.179,-0.439 -0.337,-0.619 -0.276,-0.307 -0.647,-0.457 -1.112,-0.457 -0.497,0 -0.865,0.162 -1.102,0.486 -0.238,0.323 -0.365,0.754 -0.382,1.293 l 3.882,0 c 0,0.533 -0.027,0.922 -0.08,1.166 -0.058,0.356 -0.177,0.666 -0.355,0.934 -0.185,0.279 -0.453,0.508 -0.806,0.683 -0.352,0.178 -0.717,0.266 -1.093,0.266 -0.744,0 -1.348,-0.266 -1.808,-0.795 z m 0.726,-0.422 c 0.277,0.293 0.619,0.442 1.028,0.442 0.57,0 0.977,-0.215 1.221,-0.645 0.132,-0.23 0.216,-0.537 0.252,-0.922 l -2.941,0 c 0.015,0.455 0.163,0.83 0.44,1.125"
         style="fill:#231f20;fill-opacity:1;fill-rule:nonzero;stroke:none"
         id="path3374" /><path
         inkscape:connector-curvature="0"
         d="m 406.147,414.242 0.854,0 c 0.027,-0.297 0.101,-0.525 0.224,-0.683 0.224,-0.286 0.612,-0.43 1.166,-0.43 0.33,0 0.619,0.074 0.87,0.215 0.251,0.144 0.376,0.367 0.376,0.668 0,0.224 -0.1,0.398 -0.302,0.517 -0.127,0.072 -0.381,0.156 -0.76,0.252 l -0.707,0.18 c -0.452,0.109 -0.785,0.234 -0.999,0.375 -0.382,0.238 -0.574,0.572 -0.574,0.996 0,0.504 0.181,0.908 0.541,1.217 0.361,0.31 0.846,0.467 1.456,0.467 0.797,0 1.373,-0.237 1.726,-0.704 0.221,-0.296 0.328,-0.617 0.321,-0.959 l -0.84,0 c -0.016,0.2 -0.088,0.383 -0.213,0.549 -0.204,0.235 -0.559,0.35 -1.063,0.35 -0.336,0 -0.591,-0.065 -0.764,-0.192 -0.172,-0.128 -0.259,-0.298 -0.259,-0.507 0,-0.233 0.114,-0.416 0.342,-0.557 0.13,-0.08 0.326,-0.154 0.583,-0.217 l 0.588,-0.142 c 0.639,-0.155 1.068,-0.305 1.285,-0.452 0.346,-0.224 0.519,-0.584 0.519,-1.07 0,-0.472 -0.179,-0.879 -0.536,-1.222 -0.358,-0.344 -0.902,-0.516 -1.634,-0.516 -0.788,0 -1.346,0.18 -1.674,0.539 -0.328,0.357 -0.503,0.799 -0.526,1.326"
         style="fill:#231f20;fill-opacity:1;fill-rule:nonzero;stroke:none"
         id="path3376" /><path
         inkscape:connector-curvature="0"
         d="m 414.744,417.199 c -0.461,-0.531 -0.692,-1.221 -0.692,-2.072 0,-0.863 0.229,-1.535 0.687,-2.016 0.458,-0.478 1.016,-0.717 1.676,-0.717 0.27,0 0.513,0.026 0.727,0.077 0.399,0.093 0.733,0.273 1.003,0.537 0.162,0.148 0.308,0.345 0.438,0.584 0.13,0.24 0.207,0.457 0.23,0.65 l -0.875,0 c -0.066,-0.234 -0.179,-0.439 -0.337,-0.619 -0.276,-0.307 -0.646,-0.457 -1.112,-0.457 -0.497,0 -0.865,0.162 -1.102,0.486 -0.238,0.323 -0.365,0.754 -0.381,1.293 l 3.881,0 c 0,0.533 -0.026,0.922 -0.079,1.166 -0.059,0.356 -0.178,0.666 -0.356,0.934 -0.184,0.279 -0.453,0.508 -0.806,0.683 -0.353,0.178 -0.717,0.266 -1.093,0.266 -0.744,0 -1.347,-0.266 -1.809,-0.795 z m 0.727,-0.422 c 0.277,0.293 0.619,0.442 1.028,0.442 0.57,0 0.977,-0.215 1.221,-0.645 0.132,-0.23 0.216,-0.537 0.252,-0.922 l -2.941,0 c 0.016,0.455 0.163,0.83 0.44,1.125"
         style="fill:#231f20;fill-opacity:1;fill-rule:nonzero;stroke:none"
         id="path3378" /><path
         inkscape:connector-curvature="0"
         d="m 419.977,412.582 0,5.293 0.846,0 0,-0.752 c 0.25,0.311 0.515,0.533 0.796,0.668 0.28,0.137 0.59,0.203 0.934,0.203 0.751,0 1.259,-0.262 1.523,-0.787 0.145,-0.285 0.217,-0.695 0.217,-1.229 l 0,-3.396 -0.905,0 0,3.338 c 0,0.32 -0.048,0.58 -0.143,0.779 -0.159,0.328 -0.445,0.496 -0.861,0.496 -0.21,0 -0.383,-0.021 -0.518,-0.066 -0.244,-0.072 -0.458,-0.217 -0.643,-0.434 -0.148,-0.176 -0.244,-0.355 -0.289,-0.543 -0.045,-0.185 -0.066,-0.453 -0.066,-0.799 l 0,-2.771 -0.891,0"
         style="fill:#231f20;fill-opacity:1;fill-rule:nonzero;stroke:none"
         id="path3380" /><path
         inkscape:connector-curvature="0"
         d="m 310.505,402.242 0.856,0 c 0.026,-0.297 0.1,-0.525 0.222,-0.683 0.225,-0.286 0.613,-0.43 1.167,-0.43 0.33,0 0.62,0.074 0.87,0.215 0.251,0.144 0.376,0.367 0.376,0.668 0,0.224 -0.1,0.398 -0.302,0.517 -0.128,0.072 -0.382,0.156 -0.761,0.252 l -0.707,0.18 c -0.452,0.109 -0.785,0.234 -0.998,0.375 -0.383,0.238 -0.574,0.572 -0.574,0.996 0,0.504 0.18,0.908 0.541,1.217 0.361,0.31 0.847,0.467 1.456,0.467 0.798,0 1.373,-0.237 1.725,-0.704 0.221,-0.296 0.329,-0.617 0.322,-0.959 l -0.841,0 c -0.016,0.2 -0.087,0.383 -0.212,0.549 -0.205,0.235 -0.559,0.35 -1.063,0.35 -0.336,0 -0.591,-0.065 -0.764,-0.192 -0.173,-0.128 -0.259,-0.298 -0.259,-0.507 0,-0.233 0.113,-0.416 0.341,-0.557 0.132,-0.08 0.326,-0.154 0.583,-0.217 l 0.588,-0.142 c 0.64,-0.155 1.068,-0.305 1.286,-0.452 0.346,-0.224 0.519,-0.584 0.519,-1.07 0,-0.472 -0.179,-0.879 -0.537,-1.222 -0.357,-0.344 -0.901,-0.516 -1.633,-0.516 -0.788,0 -1.346,0.18 -1.674,0.539 -0.328,0.357 -0.503,0.799 -0.527,1.326"
         style="fill:#231f20;fill-opacity:1;fill-rule:nonzero;stroke:none"
         id="path3382" /><path
         inkscape:connector-curvature="0"
         d="m 317.936,406.029 c 0.597,0 1.082,-0.146 1.456,-0.435 0.374,-0.291 0.599,-0.789 0.675,-1.498 l -0.865,0 c -0.053,0.328 -0.173,0.597 -0.361,0.812 -0.188,0.217 -0.489,0.324 -0.905,0.324 -0.567,0 -0.972,-0.275 -1.216,-0.83 -0.158,-0.357 -0.237,-0.802 -0.237,-1.328 0,-0.533 0.112,-0.978 0.336,-1.342 0.224,-0.363 0.577,-0.543 1.058,-0.543 0.369,0 0.662,0.114 0.877,0.338 0.216,0.227 0.365,0.535 0.448,0.928 l 0.865,0 c -0.099,-0.703 -0.346,-1.215 -0.742,-1.539 -0.395,-0.326 -0.901,-0.488 -1.517,-0.488 -0.692,0 -1.245,0.254 -1.657,0.757 -0.412,0.506 -0.617,1.139 -0.617,1.897 0,0.93 0.225,1.654 0.677,2.17 0.451,0.517 1.026,0.777 1.725,0.777"
         style="fill:#231f20;fill-opacity:1;fill-rule:nonzero;stroke:none"
         id="path3384" /><path
         inkscape:connector-curvature="0"
         d="m 320.957,406.836 0,1.008 0.905,0 0,-1.008 -0.905,0 z m 0,-6.254 0,5.268 0.905,0 0,-5.268 -0.905,0"
         style="fill:#231f20;fill-opacity:1;fill-rule:nonzero;stroke:none"
         id="path3386" /><path
         inkscape:connector-curvature="0"
         d="m 323.54,405.086 c -0.462,-0.529 -0.692,-1.221 -0.692,-2.07 0,-0.864 0.229,-1.536 0.687,-2.016 0.458,-0.479 1.017,-0.719 1.676,-0.719 0.27,0 0.512,0.026 0.727,0.08 0.398,0.092 0.733,0.27 1.003,0.533 0.162,0.151 0.308,0.346 0.438,0.586 0.13,0.239 0.206,0.455 0.23,0.649 l -0.876,0 c -0.066,-0.233 -0.177,-0.44 -0.336,-0.617 -0.276,-0.305 -0.647,-0.459 -1.112,-0.459 -0.498,0 -0.865,0.162 -1.102,0.488 -0.238,0.324 -0.365,0.754 -0.381,1.291 l 3.881,0 c 0,0.533 -0.027,0.922 -0.079,1.166 -0.06,0.357 -0.178,0.668 -0.356,0.936 -0.185,0.281 -0.454,0.507 -0.806,0.685 -0.353,0.176 -0.717,0.264 -1.093,0.264 -0.745,0 -1.348,-0.264 -1.809,-0.797 z m 0.727,-0.422 c 0.276,0.295 0.619,0.443 1.028,0.443 0.57,0 0.977,-0.214 1.221,-0.642 0.132,-0.233 0.216,-0.541 0.252,-0.924 l -2.941,0 c 0.016,0.453 0.163,0.828 0.44,1.123"
         style="fill:#231f20;fill-opacity:1;fill-rule:nonzero;stroke:none"
         id="path3388" /><path
         inkscape:connector-curvature="0"
         d="m 328.833,400.582 0,5.293 0.845,0 0,-0.752 c 0.25,0.311 0.515,0.533 0.796,0.668 0.28,0.137 0.592,0.203 0.935,0.203 0.751,0 1.258,-0.262 1.522,-0.787 0.145,-0.285 0.217,-0.695 0.217,-1.229 l 0,-3.396 -0.904,0 0,3.338 c 0,0.32 -0.048,0.58 -0.144,0.779 -0.158,0.328 -0.445,0.496 -0.859,0.496 -0.212,0 -0.385,-0.021 -0.52,-0.066 -0.244,-0.072 -0.459,-0.217 -0.642,-0.434 -0.149,-0.176 -0.246,-0.355 -0.29,-0.543 -0.044,-0.185 -0.067,-0.453 -0.067,-0.799 l 0,-2.771 -0.889,0"
         style="fill:#231f20;fill-opacity:1;fill-rule:nonzero;stroke:none"
         id="path3390" /><path
         inkscape:connector-curvature="0"
         d="m 336.503,406.029 c 0.596,0 1.081,-0.146 1.455,-0.435 0.375,-0.291 0.6,-0.789 0.675,-1.498 l -0.864,0 c -0.053,0.328 -0.174,0.597 -0.361,0.812 -0.188,0.217 -0.491,0.324 -0.905,0.324 -0.567,0 -0.973,-0.275 -1.216,-0.83 -0.159,-0.357 -0.238,-0.802 -0.238,-1.328 0,-0.533 0.113,-0.978 0.337,-1.342 0.223,-0.363 0.576,-0.543 1.057,-0.543 0.369,0 0.662,0.114 0.878,0.338 0.217,0.227 0.365,0.535 0.448,0.928 l 0.864,0 c -0.098,-0.703 -0.345,-1.215 -0.741,-1.539 -0.395,-0.326 -0.901,-0.488 -1.517,-0.488 -0.693,0 -1.246,0.254 -1.657,0.757 -0.412,0.506 -0.618,1.139 -0.618,1.897 0,0.93 0.226,1.654 0.677,2.17 0.452,0.517 1.027,0.777 1.726,0.777"
         style="fill:#231f20;fill-opacity:1;fill-rule:nonzero;stroke:none"
         id="path3392" /><path
         inkscape:connector-curvature="0"
         d="m 339.919,405.199 c -0.461,-0.531 -0.692,-1.221 -0.692,-2.072 0,-0.863 0.229,-1.535 0.687,-2.016 0.458,-0.478 1.017,-0.717 1.675,-0.717 0.272,0 0.514,0.026 0.728,0.077 0.398,0.093 0.733,0.273 1.004,0.537 0.161,0.148 0.307,0.345 0.437,0.584 0.13,0.24 0.206,0.457 0.23,0.65 l -0.875,0 c -0.067,-0.234 -0.178,-0.439 -0.336,-0.619 -0.277,-0.307 -0.648,-0.457 -1.113,-0.457 -0.497,0 -0.865,0.162 -1.102,0.486 -0.237,0.323 -0.365,0.754 -0.381,1.293 l 3.881,0 c 0,0.533 -0.026,0.922 -0.079,1.166 -0.06,0.356 -0.178,0.666 -0.357,0.934 -0.184,0.279 -0.452,0.508 -0.805,0.683 -0.353,0.178 -0.717,0.266 -1.092,0.266 -0.746,0 -1.349,-0.266 -1.81,-0.795 z m 0.727,-0.422 c 0.276,0.293 0.619,0.442 1.028,0.442 0.57,0 0.978,-0.215 1.221,-0.645 0.132,-0.23 0.216,-0.537 0.253,-0.922 l -2.942,0 c 0.016,0.455 0.163,0.83 0.44,1.125"
         style="fill:#231f20;fill-opacity:1;fill-rule:nonzero;stroke:none"
         id="path3394" /><path
         inkscape:connector-curvature="0"
         d="m 344.826,402.242 0.855,0 c 0.027,-0.297 0.101,-0.525 0.223,-0.683 0.223,-0.286 0.612,-0.43 1.167,-0.43 0.329,0 0.619,0.074 0.87,0.215 0.25,0.144 0.375,0.367 0.375,0.668 0,0.224 -0.1,0.398 -0.301,0.517 -0.129,0.072 -0.383,0.156 -0.762,0.252 l -0.707,0.18 c -0.451,0.109 -0.784,0.234 -0.999,0.375 -0.381,0.238 -0.573,0.572 -0.573,0.996 0,0.504 0.18,0.908 0.542,1.217 0.36,0.31 0.846,0.467 1.455,0.467 0.798,0 1.373,-0.237 1.726,-0.704 0.22,-0.296 0.328,-0.617 0.321,-0.959 l -0.84,0 c -0.016,0.2 -0.088,0.383 -0.213,0.549 -0.204,0.235 -0.558,0.35 -1.063,0.35 -0.336,0 -0.59,-0.065 -0.764,-0.192 -0.173,-0.128 -0.259,-0.298 -0.259,-0.507 0,-0.233 0.114,-0.416 0.341,-0.557 0.131,-0.08 0.326,-0.154 0.583,-0.217 l 0.588,-0.142 c 0.64,-0.155 1.068,-0.305 1.286,-0.452 0.346,-0.224 0.519,-0.584 0.519,-1.07 0,-0.472 -0.179,-0.879 -0.536,-1.222 -0.358,-0.344 -0.903,-0.516 -1.634,-0.516 -0.788,0 -1.346,0.18 -1.673,0.539 -0.328,0.357 -0.504,0.799 -0.527,1.326"
         style="fill:#231f20;fill-opacity:1;fill-rule:nonzero;stroke:none"
         id="path3396" /><path
         inkscape:connector-curvature="0"
         d="m 353.028,400.582 0,7.287 0.889,0 0,-2.711 c 0.211,0.27 0.401,0.457 0.57,0.565 0.286,0.187 0.643,0.281 1.072,0.281 0.768,0 1.288,-0.268 1.563,-0.805 0.148,-0.295 0.221,-0.701 0.221,-1.221 l 0,-3.396 -0.914,0 0,3.338 c 0,0.387 -0.05,0.672 -0.148,0.853 -0.162,0.289 -0.465,0.434 -0.909,0.434 -0.371,0 -0.705,-0.125 -1.004,-0.379 -0.3,-0.254 -0.451,-0.734 -0.451,-1.437 l 0,-2.809 -0.889,0"
         style="fill:#231f20;fill-opacity:1;fill-rule:nonzero;stroke:none"
         id="path3398" /><path
         inkscape:connector-curvature="0"
         d="m 358.636,405.875 0.91,0 0,-3.514 c 0,-0.271 0.042,-0.492 0.129,-0.662 0.158,-0.316 0.452,-0.476 0.884,-0.476 0.62,0 1.042,0.277 1.267,0.832 0.121,0.295 0.182,0.703 0.182,1.222 l 0,2.598 0.89,0 0,-5.293 -0.841,0 0.011,0.779 c -0.116,-0.201 -0.259,-0.371 -0.431,-0.508 -0.34,-0.277 -0.752,-0.416 -1.236,-0.416 -0.754,0 -1.269,0.252 -1.542,0.758 -0.149,0.27 -0.223,0.629 -0.223,1.082 l 0,3.598"
         style="fill:#231f20;fill-opacity:1;fill-rule:nonzero;stroke:none"
         id="path3400" /><path
         inkscape:connector-curvature="0"
         d="m 364.285,400.582 0,5.293 0.88,0 0,-0.752 c 0.21,0.262 0.402,0.451 0.574,0.568 0.293,0.203 0.625,0.303 0.998,0.303 0.422,0 0.762,-0.103 1.018,-0.312 0.146,-0.118 0.277,-0.291 0.396,-0.524 0.197,0.283 0.43,0.494 0.697,0.633 0.267,0.137 0.567,0.203 0.9,0.203 0.711,0 1.196,-0.258 1.453,-0.771 0.138,-0.278 0.208,-0.649 0.208,-1.116 l 0,-3.525 -0.924,0 0,3.676 c 0,0.353 -0.089,0.595 -0.266,0.728 -0.176,0.133 -0.39,0.198 -0.644,0.198 -0.35,0 -0.65,-0.118 -0.903,-0.352 -0.252,-0.234 -0.378,-0.625 -0.378,-1.172 l 0,-3.078 -0.905,0 0,3.455 c 0,0.357 -0.042,0.621 -0.128,0.787 -0.135,0.246 -0.387,0.371 -0.757,0.371 -0.336,0 -0.641,-0.133 -0.917,-0.392 -0.275,-0.26 -0.412,-0.733 -0.412,-1.412 l 0,-2.809 -0.89,0"
         style="fill:#231f20;fill-opacity:1;fill-rule:nonzero;stroke:none"
         id="path3402" /><path
         inkscape:connector-curvature="0"
         d="m 372.929,403.111 c -0.306,-0.269 -0.46,-0.65 -0.46,-1.142 0,-0.446 0.156,-0.821 0.467,-1.119 0.312,-0.297 0.713,-0.448 1.204,-0.448 0.409,0 0.782,0.088 1.123,0.264 0.339,0.174 0.6,0.379 0.78,0.617 0.03,-0.211 0.082,-0.375 0.154,-0.488 0.138,-0.219 0.361,-0.328 0.667,-0.328 0.126,0 0.224,0.004 0.297,0.015 0.073,0.01 0.177,0.034 0.316,0.075 l 0,0.658 c -0.056,-0.012 -0.108,-0.02 -0.158,-0.024 -0.049,-0.006 -0.094,-0.007 -0.134,-0.007 -0.121,0 -0.201,0.027 -0.239,0.085 -0.038,0.055 -0.057,0.129 -0.057,0.221 l 0,3.051 c 0,0.5 -0.192,0.869 -0.579,1.107 -0.389,0.239 -0.893,0.356 -1.518,0.356 -0.537,0 -1.008,-0.127 -1.416,-0.383 -0.407,-0.256 -0.618,-0.709 -0.635,-1.363 l 0.831,0 c 0.033,0.273 0.104,0.482 0.213,0.619 0.194,0.25 0.524,0.375 0.988,0.375 0.402,0 0.711,-0.068 0.928,-0.203 0.216,-0.139 0.323,-0.36 0.323,-0.662 0,-0.147 -0.02,-0.262 -0.06,-0.34 -0.069,-0.145 -0.206,-0.233 -0.41,-0.256 l -1.419,-0.18 c -0.497,-0.062 -0.899,-0.228 -1.206,-0.5 z m 0.88,-0.379 c 0.162,0.092 0.404,0.159 0.727,0.202 l 0.539,0.07 c 0.164,0.019 0.333,0.053 0.505,0.099 0.17,0.045 0.311,0.104 0.419,0.174 l 0,-0.718 c 0,-0.547 -0.248,-0.94 -0.741,-1.182 -0.294,-0.145 -0.597,-0.219 -0.91,-0.219 -0.258,0 -0.479,0.074 -0.668,0.225 -0.187,0.146 -0.281,0.349 -0.281,0.607 0,0.338 0.137,0.588 0.41,0.742"
         style="fill:#231f20;fill-opacity:1;fill-rule:nonzero;stroke:none"
         id="path3404" /><path
         inkscape:connector-curvature="0"
         d="m 378.345,406.836 0,1.008 0.905,0 0,-1.008 -0.905,0 z m 0,-6.254 0,5.268 0.905,0 0,-5.268 -0.905,0"
         style="fill:#231f20;fill-opacity:1;fill-rule:nonzero;stroke:none"
         id="path3406" /><path
         inkscape:connector-curvature="0"
         d="m 380.592,400.582 0,5.293 0.846,0 0,-0.752 c 0.25,0.311 0.516,0.533 0.796,0.668 0.279,0.137 0.592,0.203 0.933,0.203 0.752,0 1.259,-0.262 1.523,-0.787 0.145,-0.285 0.219,-0.695 0.219,-1.229 l 0,-3.396 -0.906,0 0,3.338 c 0,0.32 -0.047,0.58 -0.143,0.779 -0.158,0.328 -0.445,0.496 -0.86,0.496 -0.211,0 -0.384,-0.021 -0.52,-0.066 -0.243,-0.072 -0.458,-0.217 -0.642,-0.434 -0.149,-0.176 -0.245,-0.355 -0.289,-0.543 -0.045,-0.185 -0.067,-0.453 -0.067,-0.799 l 0,-2.771 -0.89,0"
         style="fill:#231f20;fill-opacity:1;fill-rule:nonzero;stroke:none"
         id="path3408" /><path
         inkscape:connector-curvature="0"
         d="m 386.616,405.199 c -0.461,-0.531 -0.692,-1.221 -0.692,-2.072 0,-0.863 0.229,-1.535 0.688,-2.016 0.457,-0.478 1.015,-0.717 1.676,-0.717 0.269,0 0.512,0.026 0.726,0.077 0.399,0.093 0.733,0.273 1.004,0.537 0.16,0.148 0.307,0.345 0.438,0.584 0.128,0.24 0.206,0.457 0.229,0.65 l -0.875,0 c -0.066,-0.234 -0.179,-0.439 -0.337,-0.619 -0.276,-0.307 -0.647,-0.457 -1.111,-0.457 -0.498,0 -0.865,0.162 -1.103,0.486 -0.237,0.323 -0.364,0.754 -0.382,1.293 l 3.882,0 c 0,0.533 -0.026,0.922 -0.079,1.166 -0.059,0.356 -0.179,0.666 -0.355,0.934 -0.186,0.279 -0.454,0.508 -0.807,0.683 -0.352,0.178 -0.717,0.266 -1.092,0.266 -0.746,0 -1.348,-0.266 -1.81,-0.795 z m 0.727,-0.422 c 0.277,0.293 0.619,0.442 1.029,0.442 0.57,0 0.976,-0.215 1.22,-0.645 0.132,-0.23 0.216,-0.537 0.252,-0.922 l -2.941,0 c 0.016,0.455 0.163,0.83 0.44,1.125"
         style="fill:#231f20;fill-opacity:1;fill-rule:nonzero;stroke:none"
         id="path3410" /><path
         inkscape:connector-curvature="0"
         d="m 391.523,402.242 0.855,0 c 0.027,-0.297 0.101,-0.525 0.223,-0.683 0.224,-0.286 0.612,-0.43 1.167,-0.43 0.329,0 0.619,0.074 0.87,0.215 0.25,0.144 0.375,0.367 0.375,0.668 0,0.224 -0.1,0.398 -0.302,0.517 -0.128,0.072 -0.381,0.156 -0.76,0.252 l -0.707,0.18 c -0.452,0.109 -0.785,0.234 -0.999,0.375 -0.382,0.238 -0.574,0.572 -0.574,0.996 0,0.504 0.18,0.908 0.541,1.217 0.362,0.31 0.847,0.467 1.456,0.467 0.797,0 1.374,-0.237 1.726,-0.704 0.221,-0.296 0.328,-0.617 0.321,-0.959 l -0.84,0 c -0.016,0.2 -0.087,0.383 -0.212,0.549 -0.205,0.235 -0.559,0.35 -1.064,0.35 -0.336,0 -0.591,-0.065 -0.764,-0.192 -0.172,-0.128 -0.259,-0.298 -0.259,-0.507 0,-0.233 0.113,-0.416 0.341,-0.557 0.132,-0.08 0.327,-0.154 0.583,-0.217 l 0.588,-0.142 c 0.64,-0.155 1.069,-0.305 1.286,-0.452 0.346,-0.224 0.519,-0.584 0.519,-1.07 0,-0.472 -0.179,-0.879 -0.536,-1.222 -0.358,-0.344 -0.902,-0.516 -1.634,-0.516 -0.788,0 -1.346,0.18 -1.674,0.539 -0.328,0.357 -0.503,0.799 -0.526,1.326"
         style="fill:#231f20;fill-opacity:1;fill-rule:nonzero;stroke:none"
         id="path3412" /><path
         inkscape:connector-curvature="0"
         d="m 399.94,405.121 c -0.394,-0.564 -0.591,-1.232 -0.591,-2.002 0,-0.824 0.216,-1.486 0.648,-1.982 0.431,-0.496 0.942,-0.743 1.533,-0.743 0.365,0 0.689,0.071 0.973,0.217 0.284,0.145 0.529,0.379 0.737,0.705 l 0,-0.734 0.801,0 0,7.287 -0.856,0 0,-2.674 c -0.2,0.244 -0.38,0.42 -0.538,0.518 -0.274,0.17 -0.613,0.256 -1.02,0.256 -0.73,0 -1.294,-0.282 -1.687,-0.848 z m 0.766,-0.441 c 0.279,0.343 0.642,0.515 1.09,0.515 0.402,0 0.74,-0.162 1.013,-0.484 0.274,-0.32 0.411,-0.817 0.411,-1.486 0,-0.663 -0.133,-1.168 -0.398,-1.524 -0.266,-0.355 -0.604,-0.531 -1.016,-0.531 -0.53,0 -0.917,0.191 -1.157,0.574 -0.24,0.381 -0.36,0.856 -0.36,1.422 0,0.666 0.139,1.17 0.417,1.514"
         style="fill:#231f20;fill-opacity:1;fill-rule:nonzero;stroke:none"
         id="path3414" /><path
         inkscape:connector-curvature="0"
         d="m 405.333,405.875 0.91,0 0,-3.514 c 0,-0.271 0.043,-0.492 0.129,-0.662 0.158,-0.316 0.453,-0.476 0.884,-0.476 0.62,0 1.042,0.277 1.266,0.832 0.122,0.295 0.184,0.703 0.184,1.222 l 0,2.598 0.889,0 0,-5.293 -0.84,0 0.009,0.779 c -0.115,-0.201 -0.259,-0.371 -0.43,-0.508 -0.339,-0.277 -0.751,-0.416 -1.236,-0.416 -0.755,0 -1.268,0.252 -1.542,0.758 -0.148,0.27 -0.223,0.629 -0.223,1.082 l 0,3.598"
         style="fill:#231f20;fill-opacity:1;fill-rule:nonzero;stroke:none"
         id="path3416" /><path
         inkscape:connector-curvature="0"
         d="m 416.973,408.041 c 0.92,0 1.634,-0.242 2.142,-0.727 0.507,-0.484 0.789,-1.035 0.844,-1.652 l -0.958,0 c -0.109,0.471 -0.326,0.84 -0.65,1.115 -0.325,0.272 -0.78,0.408 -1.367,0.408 -0.716,0 -1.293,-0.251 -1.733,-0.753 -0.44,-0.502 -0.661,-1.274 -0.661,-2.311 0,-0.852 0.2,-1.539 0.596,-2.068 0.397,-0.53 0.99,-0.795 1.777,-0.795 0.726,0 1.278,0.279 1.657,0.836 0.202,0.293 0.351,0.679 0.45,1.156 l 0.96,0 c -0.087,-0.764 -0.37,-1.406 -0.852,-1.922 -0.576,-0.625 -1.353,-0.934 -2.333,-0.934 -0.844,0 -1.553,0.254 -2.126,0.764 -0.755,0.678 -1.132,1.719 -1.132,3.131 0,1.072 0.284,1.951 0.851,2.635 0.613,0.746 1.458,1.117 2.535,1.117"
         style="fill:#231f20;fill-opacity:1;fill-rule:nonzero;stroke:none"
         id="path3418" /><path
         inkscape:connector-curvature="0"
         d="m 421.317,403.111 c -0.307,-0.269 -0.459,-0.65 -0.459,-1.142 0,-0.446 0.155,-0.821 0.467,-1.119 0.31,-0.297 0.713,-0.448 1.203,-0.448 0.409,0 0.783,0.088 1.123,0.264 0.339,0.174 0.599,0.379 0.78,0.617 0.03,-0.211 0.081,-0.375 0.153,-0.488 0.139,-0.219 0.362,-0.328 0.668,-0.328 0.125,0 0.224,0.004 0.297,0.015 0.073,0.01 0.178,0.034 0.317,0.075 l 0,0.658 c -0.057,-0.012 -0.11,-0.02 -0.158,-0.024 -0.05,-0.006 -0.094,-0.007 -0.134,-0.007 -0.122,0 -0.202,0.027 -0.24,0.085 -0.038,0.055 -0.057,0.129 -0.057,0.221 l 0,3.051 c 0,0.5 -0.193,0.869 -0.578,1.107 -0.39,0.239 -0.896,0.356 -1.519,0.356 -0.537,0 -1.009,-0.127 -1.416,-0.383 -0.406,-0.256 -0.619,-0.709 -0.635,-1.363 l 0.83,0 c 0.034,0.273 0.105,0.482 0.213,0.619 0.195,0.25 0.525,0.375 0.989,0.375 0.402,0 0.711,-0.068 0.927,-0.203 0.215,-0.139 0.324,-0.36 0.324,-0.662 0,-0.147 -0.02,-0.262 -0.06,-0.34 -0.068,-0.145 -0.205,-0.233 -0.409,-0.256 l -1.419,-0.18 c -0.498,-0.062 -0.9,-0.228 -1.207,-0.5 z m 0.88,-0.379 c 0.162,0.092 0.404,0.159 0.727,0.202 l 0.538,0.07 c 0.165,0.019 0.333,0.053 0.505,0.099 0.171,0.045 0.311,0.104 0.42,0.174 l 0,-0.718 c 0,-0.547 -0.247,-0.94 -0.742,-1.182 -0.293,-0.145 -0.596,-0.219 -0.909,-0.219 -0.257,0 -0.48,0.074 -0.668,0.225 -0.188,0.146 -0.281,0.349 -0.281,0.607 0,0.338 0.136,0.588 0.41,0.742"
         style="fill:#231f20;fill-opacity:1;fill-rule:nonzero;stroke:none"
         id="path3420" /><path
         inkscape:connector-curvature="0"
         d="m 426.733,400.582 0,5.293 0.846,0 0,-0.752 c 0.25,0.311 0.515,0.533 0.796,0.668 0.28,0.137 0.59,0.203 0.934,0.203 0.751,0 1.259,-0.262 1.523,-0.787 0.144,-0.285 0.217,-0.695 0.217,-1.229 l 0,-3.396 -0.905,0 0,3.338 c 0,0.32 -0.048,0.58 -0.143,0.779 -0.158,0.328 -0.445,0.496 -0.86,0.496 -0.211,0 -0.385,-0.021 -0.519,-0.066 -0.245,-0.072 -0.458,-0.217 -0.643,-0.434 -0.148,-0.176 -0.245,-0.355 -0.29,-0.543 -0.044,-0.185 -0.066,-0.453 -0.066,-0.799 l 0,-2.771 -0.89,0"
         style="fill:#231f20;fill-opacity:1;fill-rule:nonzero;stroke:none"
         id="path3422" /><path
         inkscape:connector-curvature="0"
         d="m 432.575,403.111 c -0.307,-0.269 -0.461,-0.65 -0.461,-1.142 0,-0.446 0.156,-0.821 0.468,-1.119 0.311,-0.297 0.712,-0.448 1.204,-0.448 0.408,0 0.782,0.088 1.122,0.264 0.339,0.174 0.599,0.379 0.781,0.617 0.029,-0.211 0.081,-0.375 0.153,-0.488 0.138,-0.219 0.362,-0.328 0.667,-0.328 0.125,0 0.225,0.004 0.297,0.015 0.072,0.01 0.178,0.034 0.317,0.075 l 0,0.658 c -0.056,-0.012 -0.11,-0.02 -0.159,-0.024 -0.049,-0.006 -0.094,-0.007 -0.133,-0.007 -0.123,0 -0.202,0.027 -0.241,0.085 -0.037,0.055 -0.055,0.129 -0.055,0.221 l 0,3.051 c 0,0.5 -0.194,0.869 -0.579,1.107 -0.389,0.239 -0.895,0.356 -1.518,0.356 -0.537,0 -1.01,-0.127 -1.416,-0.383 -0.407,-0.256 -0.619,-0.709 -0.636,-1.363 l 0.831,0 c 0.033,0.273 0.104,0.482 0.212,0.619 0.195,0.25 0.525,0.375 0.989,0.375 0.403,0 0.711,-0.068 0.927,-0.203 0.216,-0.139 0.323,-0.36 0.323,-0.662 0,-0.147 -0.019,-0.262 -0.058,-0.34 -0.069,-0.145 -0.206,-0.233 -0.41,-0.256 l -1.419,-0.18 c -0.498,-0.062 -0.901,-0.228 -1.206,-0.5 z m 0.88,-0.379 c 0.161,0.092 0.403,0.159 0.726,0.202 l 0.538,0.07 c 0.165,0.019 0.334,0.053 0.505,0.099 0.171,0.045 0.312,0.104 0.421,0.174 l 0,-0.718 c 0,-0.547 -0.248,-0.94 -0.742,-1.182 -0.293,-0.145 -0.597,-0.219 -0.91,-0.219 -0.257,0 -0.48,0.074 -0.667,0.225 -0.188,0.146 -0.283,0.349 -0.283,0.607 0,0.338 0.137,0.588 0.412,0.742"
         style="fill:#231f20;fill-opacity:1;fill-rule:nonzero;stroke:none"
         id="path3424" /><path
         inkscape:connector-curvature="0"
         d="m 438.206,405.121 c -0.395,-0.564 -0.592,-1.232 -0.592,-2.002 0,-0.824 0.217,-1.486 0.648,-1.982 0.432,-0.496 0.943,-0.743 1.532,-0.743 0.367,0 0.691,0.071 0.974,0.217 0.283,0.145 0.529,0.379 0.737,0.705 l 0,-0.734 0.801,0 0,7.287 -0.855,0 0,-2.674 c -0.201,0.244 -0.38,0.42 -0.538,0.518 -0.275,0.17 -0.614,0.256 -1.02,0.256 -0.731,0 -1.294,-0.282 -1.687,-0.848 z m 0.766,-0.441 c 0.278,0.343 0.642,0.515 1.089,0.515 0.402,0 0.74,-0.162 1.015,-0.484 0.272,-0.32 0.409,-0.817 0.409,-1.486 0,-0.663 -0.133,-1.168 -0.398,-1.524 -0.265,-0.355 -0.603,-0.531 -1.015,-0.531 -0.53,0 -0.916,0.191 -1.157,0.574 -0.241,0.381 -0.362,0.856 -0.362,1.422 0,0.666 0.14,1.17 0.419,1.514"
         style="fill:#231f20;fill-opacity:1;fill-rule:nonzero;stroke:none"
         id="path3426" /><path
         inkscape:connector-curvature="0"
         d="m 443.832,403.111 c -0.307,-0.269 -0.46,-0.65 -0.46,-1.142 0,-0.446 0.155,-0.821 0.466,-1.119 0.313,-0.297 0.713,-0.448 1.204,-0.448 0.409,0 0.784,0.088 1.123,0.264 0.339,0.174 0.599,0.379 0.781,0.617 0.03,-0.211 0.08,-0.375 0.153,-0.488 0.139,-0.219 0.36,-0.328 0.668,-0.328 0.125,0 0.224,0.004 0.296,0.015 0.072,0.01 0.178,0.034 0.316,0.075 l 0,0.658 c -0.055,-0.012 -0.108,-0.02 -0.158,-0.024 -0.049,-0.006 -0.094,-0.007 -0.133,-0.007 -0.123,0 -0.202,0.027 -0.24,0.085 -0.038,0.055 -0.056,0.129 -0.056,0.221 l 0,3.051 c 0,0.5 -0.194,0.869 -0.579,1.107 -0.389,0.239 -0.895,0.356 -1.517,0.356 -0.538,0 -1.011,-0.127 -1.417,-0.383 -0.407,-0.256 -0.619,-0.709 -0.636,-1.363 l 0.831,0 c 0.032,0.273 0.104,0.482 0.212,0.619 0.194,0.25 0.524,0.375 0.989,0.375 0.402,0 0.711,-0.068 0.927,-0.203 0.216,-0.139 0.324,-0.36 0.324,-0.662 0,-0.147 -0.02,-0.262 -0.059,-0.34 -0.07,-0.145 -0.206,-0.233 -0.41,-0.256 l -1.419,-0.18 c -0.498,-0.062 -0.9,-0.228 -1.206,-0.5 z m 0.879,-0.379 c 0.162,0.092 0.405,0.159 0.727,0.202 l 0.539,0.07 c 0.165,0.019 0.332,0.053 0.504,0.099 0.171,0.045 0.311,0.104 0.42,0.174 l 0,-0.718 c 0,-0.547 -0.246,-0.94 -0.741,-1.182 -0.294,-0.145 -0.597,-0.219 -0.91,-0.219 -0.257,0 -0.48,0.074 -0.667,0.225 -0.188,0.146 -0.282,0.349 -0.282,0.607 0,0.338 0.137,0.588 0.41,0.742"
         style="fill:#231f20;fill-opacity:1;fill-rule:nonzero;stroke:none"
         id="path3428" /><path
         inkscape:connector-curvature="0"
         d="m 529.165,409.289 c 0.02,-0.787 0,-6.457 0,-6.457 0,0 -0.298,-1.531 -1.384,-1.852 -0.367,-0.107 -0.382,-0.337 0,-0.337 l 5.32,0 c 0.383,0 0.367,0.23 0,0.337 -1.086,0.321 -1.383,1.852 -1.383,1.852 0,0 0,5.996 0,6.783 0,1.684 -1.298,3.283 -4.276,3.283 -2.979,0 -3.768,-1.3 -3.873,-1.449 -0.107,-0.15 -0.192,-0.021 -0.192,-0.021 0,0 -0.276,1.086 -0.34,1.297 -0.064,0.212 -0.17,0.173 -0.17,0.173 l -3.659,-0.533 c 0,0 -0.746,-0.129 0,-0.363 0,0 1.638,-0.809 1.616,-2.043 -0.014,-0.787 0,-7.127 0,-7.127 0,0 -0.297,-1.531 -1.382,-1.852 -0.368,-0.107 -0.384,-0.337 0,-0.337 l 5.319,0 c 0.381,0 0.367,0.23 0,0.337 -1.087,0.321 -1.384,1.852 -1.384,1.852 0,0 0,5.66 0,6.447 0,0 0.34,2.807 3.171,2.807 0,0 2.538,0.064 2.617,-2.797"
         style="fill:#231f20;fill-opacity:1;fill-rule:nonzero;stroke:none"
         id="path3430" /><path
         inkscape:connector-curvature="0"
         d="m 558.996,413.896 3.06211,0 0,6.12695 -3.06211,0 0,-6.12695 z"
         style="fill:#ed1c24;fill-opacity:1;fill-rule:nonzero;stroke:none"
         id="path3432" /><path
         inkscape:connector-curvature="0"
         d="m 568.186,413.896 3.06406,0 0,6.12695 -3.06406,0 0,-6.12695 z"
         style="fill:#ed1c24;fill-opacity:1;fill-rule:nonzero;stroke:none"
         id="path3434" /><path
         inkscape:connector-curvature="0"
         d="m 565.143,419.193 c 0,0 -0.004,-0.009 0.004,-0.008"
         style="fill:#ed1c24;fill-opacity:1;fill-rule:nonzero;stroke:none"
         id="path3436" /><path
         inkscape:connector-curvature="0"
         d="m 565.185,419.322 c 0.273,-1.346 0.83,-0.638 0.83,-0.638 l -0.191,-1.149 c -0.065,-0.363 0.255,-0.086 0.255,-0.086 l 0.469,0.467 c -0.106,-0.764 0.809,-0.297 0.809,-0.297 -0.511,-0.893 0.126,-0.828 0.126,-0.828 l -1.041,-0.854 c 0,-0.019 -0.171,-0.211 -0.171,-0.211 l 0.277,-0.447 -1.299,0.319 0.065,-1.211 -0.341,0 0.064,1.211 -1.212,-0.276 0.191,0.404 c 0,0 -0.171,0.192 -0.171,0.211 l -1.042,0.854 c 0,0 0.638,0.062 0.085,0.871 0,0 0.914,-0.469 0.851,0.254 l 0.468,-0.467 c 0,0 0.319,-0.277 0.255,0.086 l -0.191,1.149 c 0,0 0.621,-0.639 0.872,0.638"
         style="fill:#ed1c24;fill-opacity:1;fill-rule:nonzero;stroke:none"
         id="path3438" /><path
         inkscape:connector-curvature="0"
         d="m 505.058,420.215 0.468,-6.979 c 0,0 -0.126,-0.935 -0.552,0.086 -0.426,1.022 -1.957,6.766 -6.214,6.211 -4.256,-0.553 -6.169,-4.041 -6.169,-9.658 0,-5.617 2.425,-8.553 6.595,-8.553 4.17,0 5.575,2.51 6.34,4.893 0,0 0.299,0.98 0.258,0.043 0,0 -0.048,-6.045 -7.577,-5.957 -7.407,0.086 -9.361,7.021 -9.361,9.617 0,2.596 1.021,9.701 10.042,10.424 0,0 2.531,-0.041 4.425,-1.065 0,0 0.597,-0.34 0.895,0.129 0.297,0.469 0.381,0.639 0.381,0.639 0,0 0.214,0.553 0.469,0.17"
         style="fill:#231f20;fill-opacity:1;fill-rule:nonzero;stroke:none"
         id="path3440" /><path
         inkscape:connector-curvature="0"
         d="m 555.091,406.639 c 0.005,2.466 0.232,6.062 -3.737,5.675 -2.648,-0.257 -3.689,-4.158 -3.124,-6.861 0.467,-2.238 1.464,-4.746 4.226,-4.314 3.055,0.478 2.631,3.793 2.635,5.5 z m -0.252,-5.157 c -2.756,-1.703 -6.389,-1.31 -8.285,1.448 -2.004,2.918 -1.647,6.882 1.348,8.935 2.165,1.486 5.223,1.662 6.922,0.053 0,0 0.256,-0.277 0.256,0.105 0,0.383 0,5.787 0,5.787 0,0 -0.362,1.704 -2,1.704 0,0 -0.426,0.148 -0.042,0.339 l 4,0.426 c 0,0 0.594,0.041 0.594,-0.361 0,-0.49 0,-16.576 0,-16.576 0,0 0.362,-2.041 1.83,-2.041 0,0 0.553,-0.043 -0.02,-0.342 l -3.937,-0.51 c 0,0 -0.298,-0.129 -0.298,0.256 l -0.084,0.639 c 0,0 0.119,0.386 -0.284,0.138"
         style="fill:#231f20;fill-opacity:1;fill-rule:nonzero;stroke:none"
         id="path3442" /><path
         inkscape:connector-curvature="0"
         d="m 513.186,407.236 c -1.833,-0.89 -4.363,-1.74 -4.331,-4.084 0.02,-1.556 1.903,-2.492 3.363,-1.541 0.873,0.571 1.156,1.522 1.224,2.455 l 0,2.936 c 0,0 0.042,0.342 -0.256,0.234 z m 5.149,-5.593 c 0,0 0.894,0.763 0.319,-0.11 l -0.362,-0.426 c -1.324,-0.914 -3.647,-0.662 -4.574,0.407 -0.214,0.318 -0.45,0.066 -0.45,0.066 -1.233,-1.082 -2.992,-1.293 -4.681,-0.82 -1.416,0.396 -2.504,1.621 -2.362,3.072 0.312,3.141 3.864,2.754 6.104,3.59 0.604,0.226 1.028,1.084 1.05,1.963 0.032,1.164 -0.323,3.011 -2.129,3.031 -1.573,0.019 -1.59,-1.594 -2.442,-2.494 -0.383,-0.404 -1.633,-0.373 -1.944,0.424 -0.19,0.482 -0.146,1.254 0.567,1.806 1.898,1.475 8.57,1.139 8.569,-1.58 0,-3.775 -0.028,-5.037 0.002,-8.273 0.008,-0.807 0.612,-1.057 1.29,-1.067 0.358,-0.006 0.862,0.278 1.194,0.496"
         style="fill:#231f20;fill-opacity:1;fill-rule:nonzero;stroke:none"
         id="path3444" /><path
         inkscape:connector-curvature="0"
         d="m 540.25,407.236 c -1.833,-0.89 -4.363,-1.74 -4.333,-4.084 0.022,-1.556 1.905,-2.492 3.367,-1.541 0.872,0.571 1.154,1.522 1.222,2.455 l -10e-4,2.936 c 0,0 0.042,0.342 -0.255,0.234 z m 5.148,-5.593 c 0,0 0.894,0.763 0.318,-0.11 l -0.359,-0.426 c -1.325,-0.914 -3.648,-0.662 -4.575,0.407 -0.214,0.318 -0.449,0.066 -0.449,0.066 -1.234,-1.082 -2.994,-1.293 -4.681,-0.82 -1.416,0.396 -2.506,1.621 -2.362,3.072 0.31,3.141 3.862,2.754 6.102,3.59 0.606,0.226 1.027,1.084 1.051,1.963 0.029,1.164 -0.322,3.011 -2.13,3.031 -1.573,0.019 -1.588,-1.594 -2.44,-2.494 -0.383,-0.404 -1.633,-0.373 -1.946,0.424 -0.189,0.482 -0.146,1.254 0.569,1.806 1.895,1.475 8.568,1.139 8.568,-1.58 0,-3.775 -0.027,-5.037 0.002,-8.273 0.007,-0.807 0.612,-1.057 1.289,-1.067 0.357,-0.006 0.861,0.278 1.195,0.496"
         style="fill:#231f20;fill-opacity:1;fill-rule:nonzero;stroke:none"
         id="path3446" /><path
         inkscape:connector-curvature="0"
         d="m 566.846,407.236 c -1.834,-0.89 -4.363,-1.74 -4.332,-4.084 0.021,-1.556 1.903,-2.492 3.364,-1.541 0.873,0.571 1.156,1.522 1.223,2.455 l -10e-4,2.936 c 0,0 0.043,0.342 -0.254,0.234 z m 5.148,-5.593 c 0,0 0.893,0.763 0.319,-0.11 l -0.36,-0.426 c -1.326,-0.914 -3.649,-0.662 -4.577,0.407 -0.212,0.318 -0.449,0.066 -0.449,0.066 -1.232,-1.082 -2.992,-1.293 -4.679,-0.82 -1.416,0.396 -2.506,1.621 -2.362,3.072 0.31,3.141 3.862,2.754 6.103,3.59 0.604,0.226 1.026,1.084 1.05,1.963 0.031,1.164 -0.323,3.011 -2.13,3.031 -1.574,0.019 -1.589,-1.594 -2.443,-2.494 -0.383,-0.404 -1.632,-0.373 -1.943,0.424 -0.19,0.482 -0.146,1.254 0.568,1.806 1.897,1.475 8.57,1.139 8.569,-1.58 0,-3.775 -0.027,-5.037 0.003,-8.273 0.006,-0.807 0.61,-1.057 1.288,-1.067 0.357,-0.006 0.862,0.278 1.195,0.496"
         style="fill:#231f20;fill-opacity:1;fill-rule:nonzero;stroke:none"
         id="path3448" /></g></g></svg>